<?xml version="1.0" encoding="iso-8859-1"?>
<!-- Generator: Adobe Illustrator 19.0.0, SVG Export Plug-In . SVG Version: 6.00 Build 0)  -->
<svg version="1.1" id="Capa_1" xmlns="http://www.w3.org/2000/svg" xmlns:xlink="http://www.w3.org/1999/xlink" x="0px" y="0px"
	 viewBox="0 0 512 512" style="enable-background:new 0 0 512 512;" xml:space="preserve">
<polygon style="fill:#EFEDEE;" points="122.316,2.842 229.832,121.072 286.582,260.073 225.418,260.073 107.516,121.072 
	61.153,2.842 "/>
<path style="fill:#D2D2D2;" d="M234.451,132.383c-32.338,4.601-62.266,16.779-87.927,34.677l78.894,93.013h61.163L234.451,132.383z"
	/>
<polygon style="fill:#6EE3FF;" points="122.316,2.842 286.582,260.073 347.735,260.073 183.469,2.842 "/>
<polygon style="fill:#FD6F71;" points="0,2.842 164.265,260.073 225.418,260.073 61.153,2.842 "/>
<polygon style="fill:#EFEDEE;" points="389.684,2.842 282.168,121.072 225.418,260.073 286.582,260.073 404.484,121.072 
	450.847,2.842 "/>
<path style="fill:#D2D2D2;" d="M225.418,260.073h61.163l84.221-99.293c-27.307-16.87-58.847-27.511-92.631-29.923L225.418,260.073z"
	/>
<path style="fill:#42C3E2;" d="M208.508,137.813l78.074,122.26h61.153l-82.845-129.732c-0.483-0.003-0.963-0.019-1.447-0.019
	C244.419,130.323,225.998,132.939,208.508,137.813z"/>
<polygon style="fill:#FD6F71;" points="389.684,2.842 225.418,260.073 164.265,260.073 328.531,2.842 "/>
<polygon style="fill:#6EE3FF;" points="512,2.842 347.735,260.073 286.582,260.073 450.847,2.842 "/>
<path style="fill:#42C3E2;" d="M355.472,152.193l-68.891,107.88h61.153l50.478-79.046
	C385.291,169.717,370.941,160.004,355.472,152.193z"/>
<g>
	<path style="fill:#E36465;" d="M263.441,130.323c-5.642,0-11.23,0.239-16.759,0.689l-82.417,129.06h61.153l80.08-125.401
		C291.919,131.827,277.853,130.323,263.441,130.323z"/>
	<path style="fill:#E36465;" d="M164.265,260.073h61.153l-65.053-101.869c-14.988,8.763-28.769,19.37-41.028,31.514L164.265,260.073
		z"/>
</g>
<circle style="fill:#FADC60;" cx="263.438" cy="335.192" r="173.967"/>
<circle style="fill:#E6CB59;" cx="263.438" cy="335.192" r="136.829"/>
<g>
	<path style="fill:#3A484A;" d="M181.183,346.392c-4.267,0-7.726-3.459-7.726-7.726v-14.887c0-4.267,3.459-7.726,7.726-7.726
		s7.726,3.459,7.726,7.726v14.887C188.909,342.932,185.45,346.392,181.183,346.392z"/>
	<path style="fill:#3A484A;" d="M345.7,346.392c-4.267,0-7.726-3.459-7.726-7.726v-14.887c0-4.267,3.459-7.726,7.726-7.726
		c4.267,0,7.726,3.459,7.726,7.726v14.887C353.426,342.932,349.967,346.392,345.7,346.392z"/>
	<path style="fill:#3A484A;" d="M263.441,354.339c-10.143,0-19.663-4.237-26.119-11.625c-2.808-3.213-2.481-8.094,0.732-10.902
		c3.212-2.807,8.093-2.481,10.902,0.732c3.522,4.03,8.802,6.341,14.485,6.341s10.963-2.312,14.485-6.341
		c2.808-3.213,7.689-3.541,10.902-0.732s3.541,7.689,0.731,10.902C283.104,350.101,273.584,354.339,263.441,354.339z"/>
</g>
<g>
</g>
<g>
</g>
<g>
</g>
<g>
</g>
<g>
</g>
<g>
</g>
<g>
</g>
<g>
</g>
<g>
</g>
<g>
</g>
<g>
</g>
<g>
</g>
<g>
</g>
<g>
</g>
<g>
</g>
</svg>
