<?xml version="1.0" encoding="iso-8859-1"?>
<!-- Generator: Adobe Illustrator 19.0.0, SVG Export Plug-In . SVG Version: 6.00 Build 0)  -->
<svg version="1.1" id="Capa_1" xmlns="http://www.w3.org/2000/svg" xmlns:xlink="http://www.w3.org/1999/xlink" x="0px" y="0px"
	 viewBox="0 0 512 512" style="enable-background:new 0 0 512 512;" xml:space="preserve">
<g>
	<path style="fill:#3A484A;" d="M351.298,200.415c-4.802,4.802-11.612,7.524-18.905,6.885
		c-31.918-2.798-65.664,10.221-90.269,34.825c-23.578,23.578-36.379,54.803-35.121,85.666c0.534,13.127-9.671,24.199-22.797,24.735
		c-13.126,0.535-24.199-9.671-24.735-22.797c-1.798-44.103,16.068-88.294,49.015-121.24c34.942-34.942,81.617-52.647,128.059-48.577
		c13.086,1.148,22.765,12.685,21.617,25.771C357.656,191.474,355.111,196.602,351.298,200.415z"/>
	<path style="fill:#3A484A;" d="M466.268,11.254l-34.935,34.936l34.478,34.478l34.935-34.935c9.521-9.521,9.521-24.957,0-34.478l0,0
		C491.225,1.734,475.789,1.734,466.268,11.254z"/>
	<path style="fill:#3A484A;" d="M11.254,466.268l34.936-34.935l34.478,34.478l-34.935,34.935c-9.521,9.521-24.957,9.521-34.478,0
		l0,0C1.734,491.225,1.734,475.789,11.254,466.268z"/>
</g>
<circle style="fill:#506366;" cx="375.831" cy="136.169" r="136.169"/>
<circle style="fill:#6EE3FF;" cx="375.831" cy="136.169" r="95.529"/>
<path style="fill:#42C3E2;" d="M322.854,189.146c-34.844-34.844-37.138-89.906-6.893-127.418c-2.651,2.137-5.215,4.431-7.677,6.893
	c-37.305,37.305-37.305,97.789,0,135.094s97.789,37.305,135.094,0c2.461-2.461,4.756-5.026,6.893-7.677
	C412.759,226.284,357.697,223.99,322.854,189.146z"/>
<circle style="fill:#506366;" cx="136.169" cy="375.831" r="136.169"/>
<circle style="fill:#6EE3FF;" cx="136.169" cy="375.831" r="95.529"/>
<path style="fill:#42C3E2;" d="M83.19,428.81c-34.844-34.844-37.138-89.906-6.893-127.418c-2.65,2.137-5.215,4.431-7.677,6.893
	c-37.305,37.305-37.305,97.789,0,135.094s97.789,37.305,135.094,0c2.461-2.461,4.756-5.026,6.893-7.677
	C173.096,465.948,118.034,463.654,83.19,428.81z"/>
<g>
</g>
<g>
</g>
<g>
</g>
<g>
</g>
<g>
</g>
<g>
</g>
<g>
</g>
<g>
</g>
<g>
</g>
<g>
</g>
<g>
</g>
<g>
</g>
<g>
</g>
<g>
</g>
<g>
</g>
</svg>
