<?xml version="1.0" encoding="iso-8859-1"?>
<!-- Generator: Adobe Illustrator 19.0.0, SVG Export Plug-In . SVG Version: 6.00 Build 0)  -->
<svg version="1.1" id="Capa_1" xmlns="http://www.w3.org/2000/svg" xmlns:xlink="http://www.w3.org/1999/xlink" x="0px" y="0px"
	 viewBox="0 0 512 512" style="enable-background:new 0 0 512 512;" xml:space="preserve">
<g>
	<path style="fill:#46926F;" d="M422.106,0.73l-5.715,6.275v490.701l5.715,13.562c19.175-3.621,33.682-20.45,33.682-40.678V41.408
		C455.788,21.181,441.281,4.351,422.106,0.73z"/>
	<path style="fill:#46926F;" d="M89.894,0.73l5.715,6.275v490.701l-5.715,13.562c-19.175-3.621-33.682-20.45-33.682-40.678V41.408
		C56.212,21.181,70.719,4.351,89.894,0.73z"/>
</g>
<g>
	<path style="fill:#58B78C;" d="M256,329.774c40.68,0,73.775-33.095,73.775-73.774S296.68,182.225,256,182.225
		c-40.679,0-73.774,33.095-73.774,73.775C182.226,296.68,215.321,329.774,256,329.774z"/>
	<path style="fill:#58B78C;" d="M91.805,0.414c0.619-0.088,1.242-0.162,1.87-0.223C93.046,0.251,92.424,0.328,91.805,0.414z"/>
	<path style="fill:#58B78C;" d="M94.062,0.162c0.514-0.044,1.028-0.086,1.547-0.111C95.09,0.075,94.576,0.118,94.062,0.162z"/>
	<path style="fill:#58B78C;" d="M416.391,0.05c0.518,0.026,1.032,0.066,1.545,0.111C417.423,0.118,416.91,0.075,416.391,0.05z"/>
	<path style="fill:#58B78C;" d="M420.218,0.417c0.629,0.09,1.254,0.194,1.874,0.31C421.472,0.611,420.848,0.507,420.218,0.417z"/>
	<path style="fill:#58B78C;" d="M418.328,0.192c0.626,0.061,1.249,0.135,1.867,0.223C419.575,0.328,418.954,0.251,418.328,0.192z"/>
	<path style="fill:#58B78C;" d="M417.865,511.843c-0.487,0.041-0.975,0.081-1.466,0.106
		C416.892,511.925,417.378,511.884,417.865,511.843z"/>
	<path style="fill:#58B78C;" d="M89.906,511.271c0.621,0.116,1.245,0.221,1.876,0.311C91.151,511.492,90.526,511.388,89.906,511.271
		z"/>
	<path style="fill:#58B78C;" d="M89.906,0.728c0.621-0.116,1.248-0.22,1.878-0.311C91.152,0.507,90.527,0.612,89.906,0.728z"/>
	<path style="fill:#58B78C;" d="M422.092,511.272c-0.619,0.116-1.243,0.22-1.872,0.31
		C420.849,511.493,421.473,511.388,422.092,511.272z"/>
	<path style="fill:#58B78C;" d="M420.185,511.587c-0.613,0.087-1.231,0.161-1.852,0.22
		C418.955,511.749,419.571,511.672,420.185,511.587z"/>
	<path style="fill:#58B78C;" d="M94.134,511.842c0.488,0.041,0.976,0.082,1.468,0.106C95.109,511.925,94.621,511.885,94.134,511.842
		z"/>
	<path style="fill:#58B78C;" d="M91.813,511.586c0.615,0.086,1.232,0.163,1.855,0.221C93.046,511.747,92.427,511.673,91.813,511.586
		z"/>
	<polygon style="fill:#58B78C;" points="105.347,248.274 105.347,263.726 105.347,512 406.654,512 406.654,263.726 406.654,248.274 
		406.654,0 105.347,0 	"/>
</g>
<g>
	<path style="fill:#EFEDEE;" d="M145.256,0v65.436c0,17.349,14.115,31.464,31.464,31.464h24.269
		c3.774,26.991,26.998,47.834,55.012,47.834s51.239-20.844,55.013-47.834h24.268c17.349,0,31.464-14.115,31.464-31.464V0l0,0
		H145.256L145.256,0z M256,129.282c-19.474,0-35.75-13.95-39.361-32.382h78.723C291.751,115.332,275.474,129.282,256,129.282z
		 M215.892,7.726h80.216V36.86h-80.216L215.892,7.726L215.892,7.726z M160.708,7.726h39.731v36.86c0,4.267,3.458,7.726,7.726,7.726
		h95.669c4.268,0,7.726-3.459,7.726-7.726V7.726h39.731v57.71c0,8.829-7.182,16.011-16.011,16.011h-31.445h-95.669H176.72
		c-8.829,0-16.011-7.182-16.011-16.011V7.726H160.708z"/>
	<path style="fill:#EFEDEE;" d="M335.281,415.1h-24.268c-3.774-26.991-26.998-47.835-55.013-47.835
		c-28.014,0-51.238,20.844-55.012,47.835h-24.269c-17.349,0-31.464,14.115-31.464,31.464V512h221.489v-65.436
		C366.744,429.215,352.63,415.1,335.281,415.1z M256,382.718c19.474,0,35.751,13.95,39.362,32.383h-78.723
		C220.25,396.668,236.526,382.718,256,382.718z M296.109,504.274h-80.216V475.14h80.216V504.274z M351.292,504.274h-39.73v-36.86
		c0-4.268-3.458-7.726-7.726-7.726h-95.669c-4.268,0-7.726,3.458-7.726,7.726v36.86h-39.732v-57.71
		c0-8.829,7.182-16.011,16.011-16.011h31.446h95.669h31.445c8.829,0,16.011,7.182,16.011,16.011v57.71H351.292z"/>
	<path style="fill:#EFEDEE;" d="M414.38,512c2.641,0,5.222-0.258,7.726-0.73V0.73C419.602,0.258,417.021,0,414.38,0h-7.726l0,0
		v248.274H344.89c-3.93-45.596-42.293-81.502-88.89-81.502s-84.959,35.906-88.889,81.502h-61.763V0l0,0h-7.726
		c-2.641,0-5.222,0.258-7.726,0.73V511.27c2.504,0.473,5.085,0.73,7.726,0.73h7.726V263.726h61.763
		c3.93,45.596,42.292,81.501,88.889,81.501s84.96-35.905,88.89-81.501h61.763V512H414.38z M256,329.774
		c-40.679,0-73.774-33.095-73.774-73.774s33.096-73.775,73.774-73.775c40.68,0,73.775,33.095,73.775,73.775
		C329.775,296.68,296.68,329.774,256,329.774z"/>
</g>
<g>
</g>
<g>
</g>
<g>
</g>
<g>
</g>
<g>
</g>
<g>
</g>
<g>
</g>
<g>
</g>
<g>
</g>
<g>
</g>
<g>
</g>
<g>
</g>
<g>
</g>
<g>
</g>
<g>
</g>
</svg>
