<?xml version="1.0" encoding="iso-8859-1"?>
<!-- Generator: Adobe Illustrator 19.0.0, SVG Export Plug-In . SVG Version: 6.00 Build 0)  -->
<svg version="1.1" id="Capa_1" xmlns="http://www.w3.org/2000/svg" xmlns:xlink="http://www.w3.org/1999/xlink" x="0px" y="0px"
	 viewBox="0 0 512 512" style="enable-background:new 0 0 512 512;" xml:space="preserve">
<path style="fill:#FADC60;" d="M237.348,22.076C0.953,29.902,0,171.914,0,171.914c0,118.929,159.244,96.756,169.323,240.882
	C179.402,556.921,512,498.931,512,240.682C512,20.768,249.287,21.681,237.348,22.076z M331.275,415.334
	c-29.569,29.569-71.836,35.246-94.404,12.678c-22.568-22.567-16.892-64.834,12.678-94.404c29.57-29.57,71.836-35.246,94.404-12.678
	C366.522,343.498,360.845,385.764,331.275,415.334z"/>
<path style="fill:#E6CB59;" d="M200.228,402.494C190.15,258.367,30.905,280.541,30.905,161.612c0,0,0.56-83.135,106.707-125.693
	C0.67,73.337,0,171.914,0,171.914c0,118.929,159.244,96.756,169.323,240.882c5.315,75.992,100.29,95.785,188.9,59.671
	C279.715,492.938,204.927,469.681,200.228,402.494z"/>
<circle style="fill:#58B78C;" cx="102.874" cy="131.08" r="32.567"/>
<path style="fill:#46926F;" d="M113.181,153.348c-17.986,0-32.567-14.581-32.567-32.567c0-6.354,1.827-12.28,4.974-17.292
	c-9.174,5.761-15.276,15.962-15.276,27.593c0,17.986,14.581,32.567,32.567,32.567c11.632,0,21.833-6.103,27.593-15.276
	C125.461,151.521,119.536,153.348,113.181,153.348z"/>
<circle style="fill:#FF98C9;" cx="211.084" cy="94.828" r="32.567"/>
<path style="fill:#EB6DA8;" d="M221.387,117.095c-17.986,0-32.567-14.581-32.567-32.567c0-6.354,1.827-12.28,4.974-17.292
	c-9.174,5.761-15.276,15.962-15.276,27.593c0,17.986,14.581,32.567,32.567,32.567c11.632,0,21.833-6.103,27.593-15.276
	C233.667,115.267,227.742,117.095,221.387,117.095z"/>
<circle style="fill:#6EE3FF;" cx="317.347" cy="103.008" r="32.567"/>
<path style="fill:#42C3E2;" d="M327.649,125.272c-17.986,0-32.567-14.581-32.567-32.567c0-6.354,1.827-12.28,4.974-17.292
	c-9.174,5.761-15.276,15.962-15.276,27.593c0,17.986,14.581,32.567,32.567,32.567c11.632,0,21.833-6.103,27.593-15.276
	C339.929,123.446,334.003,125.272,327.649,125.272z"/>
<circle style="fill:#FD6F71;" cx="410.022" cy="154.424" r="32.567"/>
<path style="fill:#E36465;" d="M420.323,176.689c-17.986,0-32.567-14.58-32.567-32.567c0-6.354,1.827-12.28,4.974-17.292
	c-9.174,5.761-15.276,15.962-15.276,27.593c0,17.986,14.581,32.567,32.567,32.567c11.632,0,21.833-6.103,27.593-15.276
	C432.603,174.862,426.678,176.689,420.323,176.689z"/>
<circle style="fill:#B6A4FF;" cx="436.683" cy="254.403" r="32.567"/>
<path style="fill:#937FE6;" d="M446.981,276.668c-17.986,0-32.567-14.581-32.567-32.567c0-6.354,1.827-12.28,4.974-17.292
	c-9.174,5.761-15.276,15.962-15.276,27.593c0,17.986,14.581,32.567,32.567,32.567c11.632,0,21.833-6.103,27.593-15.276
	C459.261,274.841,453.335,276.668,446.981,276.668z"/>
<g>
</g>
<g>
</g>
<g>
</g>
<g>
</g>
<g>
</g>
<g>
</g>
<g>
</g>
<g>
</g>
<g>
</g>
<g>
</g>
<g>
</g>
<g>
</g>
<g>
</g>
<g>
</g>
<g>
</g>
</svg>
