<?xml version="1.0" encoding="iso-8859-1"?>
<!-- Generator: Adobe Illustrator 19.0.0, SVG Export Plug-In . SVG Version: 6.00 Build 0)  -->
<svg version="1.1" id="Capa_1" xmlns="http://www.w3.org/2000/svg" xmlns:xlink="http://www.w3.org/1999/xlink" x="0px" y="0px"
	 viewBox="0 0 512 512" style="enable-background:new 0 0 512 512;" xml:space="preserve">
<path style="fill:#FADC60;" d="M464.48,58.177H47.52c-12.816,0-23.206,10.389-23.206,23.206v346.794h463.371V81.383
	C487.686,68.568,477.296,58.177,464.48,58.177z"/>
<rect x="66.333" y="93.18" style="fill:#58B78C;" width="379.333" height="272.998"/>
<rect x="66.333" y="93.18" style="fill:#46926F;" width="41.207" height="272.998"/>
<g>
	<path style="fill:#3A484A;" d="M153.111,249.245c-4.267,0-7.726-3.459-7.726-7.726v-18.622c0-4.267,3.459-7.726,7.726-7.726
		s7.726,3.459,7.726,7.726v18.622C160.837,245.786,157.378,249.245,153.111,249.245z"/>
	<path style="fill:#3A484A;" d="M358.889,249.245c-4.267,0-7.726-3.459-7.726-7.726v-18.622c0-4.267,3.459-7.726,7.726-7.726
		c4.267,0,7.726,3.459,7.726,7.726v18.622C366.616,245.786,363.156,249.245,358.889,249.245z"/>
	<path style="fill:#3A484A;" d="M256,259.184c-12.126,0-23.503-5.058-31.211-13.877c-2.808-3.213-2.481-8.094,0.732-10.902
		c3.213-2.808,8.094-2.481,10.902,0.732c4.774,5.462,11.91,8.594,19.577,8.594c7.667,0,14.804-3.133,19.577-8.594
		c2.809-3.213,7.689-3.541,10.902-0.732c3.213,2.808,3.541,7.689,0.732,10.902C279.503,254.127,268.126,259.184,256,259.184z"/>
</g>
<path style="fill:#506366;" d="M165.685,328.844H65.846c-10.899,0-19.734,8.836-19.734,19.734v72.599h139.307v-72.599
	C185.419,337.68,176.584,328.844,165.685,328.844z"/>
<path style="fill:#3A484A;" d="M96.752,328.845H65.846c-10.899,0-19.734,8.835-19.734,19.734v72.599h30.905v-72.599
	C77.017,337.68,85.853,328.845,96.752,328.845z"/>
<ellipse style="fill:#EFEDEE;" cx="115.761" cy="365.014" rx="29.234" ry="15.833"/>
<path style="fill:#E6CB59;" d="M487.686,401.177H24.314C10.886,401.177,0,412.063,0,425.493v28.33h512v-28.33
	C512,412.063,501.114,401.177,487.686,401.177z"/>
<g>
</g>
<g>
</g>
<g>
</g>
<g>
</g>
<g>
</g>
<g>
</g>
<g>
</g>
<g>
</g>
<g>
</g>
<g>
</g>
<g>
</g>
<g>
</g>
<g>
</g>
<g>
</g>
<g>
</g>
</svg>
