<?xml version="1.0" encoding="iso-8859-1"?>
<!-- Generator: Adobe Illustrator 19.0.0, SVG Export Plug-In . SVG Version: 6.00 Build 0)  -->
<svg version="1.1" id="Capa_1" xmlns="http://www.w3.org/2000/svg" xmlns:xlink="http://www.w3.org/1999/xlink" x="0px" y="0px"
	 viewBox="0 0 512 512" style="enable-background:new 0 0 512 512;" xml:space="preserve">
<path style="fill:#6EE3FF;" d="M180.602,215.854V67.951l-31.896-17.88l-31.896,17.88v147.903C50.011,230.455,0,289.941,0,361.12
	c0,38.036,14.284,72.733,37.778,99.027c11.935,13.357,29.112,20.835,47.024,20.835h127.809c17.912,0,35.089-7.478,47.024-20.835
	c23.493-26.294,37.778-60.991,37.778-99.027C297.411,289.941,247.4,230.455,180.602,215.854z"/>
<path style="fill:#FD6F71;" d="M245.734,302.249c-4.835-7.91-13.463-12.71-22.734-12.71H74.411c-9.271,0-17.899,4.801-22.734,12.71
	c-10.786,17.647-16.423,37.727-16.423,58.87c0,27.916,10.233,54.743,28.812,75.538c5.151,5.765,12.708,9.071,20.735,9.071H212.61
	c8.026,0,15.585-3.306,20.734-9.07c18.58-20.796,28.813-47.623,28.813-75.539C262.157,339.977,256.521,319.896,245.734,302.249z"/>
<path style="fill:#E36465;" d="M84.67,436.657c-18.579-20.795-28.812-47.622-28.812-75.538c0-21.142,5.637-41.223,16.423-58.871
	c4.835-7.91,13.463-12.71,22.734-12.71H74.411c-9.271,0-17.899,4.801-22.734,12.71c-10.786,17.647-16.423,37.728-16.423,58.871
	c0,27.916,10.233,54.743,28.812,75.538c5.151,5.766,12.708,9.072,20.735,9.072h20.604C97.378,445.729,89.82,442.423,84.67,436.657z"
	/>
<path style="fill:#B3F0FF;" d="M509.186,404.91c-18.343-57.436-53.258-128.081-106.645-160.968V133.816l-31.896-18.466
	l-31.896,18.466v110.126c-53.387,32.886-88.302,103.532-106.645,160.968c-12.015,37.621,15.928,76.073,55.422,76.073h166.24
	C493.257,480.982,521.201,442.531,509.186,404.91z"/>
<polygon style="fill:#6EE3FF;" points="338.746,164.722 338.747,164.722 402.539,164.722 402.539,133.817 370.643,115.35 
	338.746,133.817 "/>
<path style="fill:#B3F0FF;" d="M402.539,96.884h-63.793c-10.199,0-18.466,8.267-18.466,18.466l0,0
	c0,10.199,8.267,18.466,18.466,18.466h63.793c10.199,0,18.466-8.267,18.466-18.466l0,0
	C421.005,105.152,412.738,96.884,402.539,96.884z"/>
<polygon style="fill:#42C3E2;" points="180.602,98.856 180.602,98.856 180.602,67.951 148.706,50.071 116.809,67.951 
	116.809,98.856 "/>
<path style="fill:#6EE3FF;" d="M180.602,31.018h-63.793c-10.199,0-18.466,8.267-18.466,18.466l0,0
	c0,10.199,8.267,18.466,18.466,18.466h63.793c10.199,0,18.466-8.267,18.466-18.466l0,0
	C199.068,39.285,190.801,31.018,180.602,31.018z"/>
<path style="fill:#B6A4FF;" d="M475.603,415.635c-6.719-21.037-18.537-52.347-36.68-82.03c-3.508-5.74-7.089-11.155-10.736-16.241
	c-5.242-7.31-13.683-11.643-22.678-11.643h-69.734c-8.996,0-17.436,4.333-22.678,11.643c-3.648,5.086-7.228,10.502-10.736,16.241
	c-18.142,29.684-29.96,60.993-36.68,82.03c-2.278,7.133-1.061,14.68,3.338,20.703c2.561,3.507,8.372,9.391,18.501,9.391h166.243
	c10.13,0,15.94-5.884,18.501-9.391C476.665,430.315,477.88,422.768,475.603,415.635z"/>
<path style="fill:#937FE6;" d="M289.624,436.337c-4.399-6.023-5.616-13.57-3.338-20.703c6.719-21.037,18.537-52.347,36.68-82.03
	c3.508-5.74,7.089-11.155,10.736-16.242c5.242-7.31,13.683-11.643,22.678-11.643h-20.604c-8.996,0-17.436,4.333-22.678,11.643
	c-3.648,5.087-7.228,10.502-10.736,16.242c-18.142,29.684-29.96,60.993-36.68,82.03c-2.278,7.133-1.061,14.68,3.338,20.703
	c2.561,3.507,8.372,9.391,18.501,9.391h20.604C297.996,445.729,292.185,439.844,289.624,436.337z"/>
<g>
	<path style="fill:#3A484A;" d="M85.913,352.062c-4.267,0-7.726-3.459-7.726-7.726v-11.364c0-4.267,3.459-7.726,7.726-7.726
		c4.267,0,7.726,3.459,7.726,7.726v11.364C93.639,348.603,90.18,352.062,85.913,352.062z"/>
	<path style="fill:#3A484A;" d="M211.499,352.062c-4.267,0-7.726-3.459-7.726-7.726v-11.364c0-4.267,3.459-7.726,7.726-7.726
		s7.726,3.459,7.726,7.726v11.364C219.226,348.603,215.766,352.062,211.499,352.062z"/>
	<path style="fill:#3A484A;" d="M148.706,358.128c-8.27,0-16.039-3.462-21.315-9.498c-2.808-3.213-2.481-8.094,0.732-10.902
		c3.212-2.808,8.092-2.481,10.902,0.732c2.342,2.678,5.87,4.216,9.681,4.216c3.811,0,7.339-1.536,9.681-4.216
		c2.808-3.213,7.689-3.541,10.902-0.732s3.541,7.689,0.732,10.902C164.744,354.666,156.976,358.128,148.706,358.128z"/>
	<path style="fill:#3A484A;" d="M311.031,395.031c-4.267,0-7.726-3.459-7.726-7.726v-10.789c0-4.267,3.459-7.726,7.726-7.726
		c4.267,0,7.726,3.459,7.726,7.726v10.789C318.758,391.572,315.298,395.031,311.031,395.031z"/>
	<path style="fill:#3A484A;" d="M430.254,395.031c-4.268,0-7.726-3.459-7.726-7.726v-10.789c0-4.267,3.458-7.726,7.726-7.726
		c4.268,0,7.726,3.459,7.726,7.726v10.789C437.98,391.572,434.521,395.031,430.254,395.031z"/>
	<path style="fill:#3A484A;" d="M370.643,400.79c-7.963,0-15.447-3.336-20.531-9.151c-2.808-3.213-2.481-8.094,0.732-10.902
		c3.213-2.808,8.093-2.481,10.902,0.732c2.148,2.458,5.391,3.868,8.896,3.868c3.505,0,6.747-1.409,8.896-3.867
		c2.808-3.214,7.689-3.541,10.902-0.733c3.213,2.808,3.542,7.689,0.733,10.902C386.09,397.454,378.607,400.79,370.643,400.79z"/>
</g>
<g>
</g>
<g>
</g>
<g>
</g>
<g>
</g>
<g>
</g>
<g>
</g>
<g>
</g>
<g>
</g>
<g>
</g>
<g>
</g>
<g>
</g>
<g>
</g>
<g>
</g>
<g>
</g>
<g>
</g>
</svg>
