<?xml version="1.0" encoding="iso-8859-1"?>
<!-- Generator: Adobe Illustrator 19.0.0, SVG Export Plug-In . SVG Version: 6.00 Build 0)  -->
<svg version="1.1" id="Capa_1" xmlns="http://www.w3.org/2000/svg" xmlns:xlink="http://www.w3.org/1999/xlink" x="0px" y="0px"
	 viewBox="0 0 512.006 512.006" style="enable-background:new 0 0 512.006 512.006;" xml:space="preserve">
<path style="fill:#42C3E2;" d="M417.665,19.687L403.823,5.845c-7.79-7.79-20.419-7.79-28.209,0L5.843,375.616
	c-7.79,7.79-7.79,20.419,0,28.209l13.84,13.84l216.689-181.291L417.665,19.687z"/>
<path style="fill:#6EE3FF;" d="M156.171,486.377l11.815-11.815l0.098-10.829l10.829-0.098l11.815-11.815l0.098-10.829l10.829-0.098
	l11.815-11.815l0.098-10.829l10.829-0.098l11.815-11.815l0.098-10.829l10.829-0.098l11.815-11.815l0.098-10.829l10.829-0.098
	l11.815-11.815l0.098-10.829l10.829-0.098l11.815-11.815l0.098-10.829l10.829-0.098l11.815-11.815l0.098-10.829l10.829-0.098
	l11.815-11.815l0.098-10.829l10.829-0.098l11.815-11.815l0.098-10.829l10.829-0.098l11.815-11.815l0.098-10.829l10.829-0.098
	l11.815-11.815l0.098-10.829l10.829-0.098l11.815-11.815l0.098-10.829l10.829-0.098l11.815-11.815l0.098-10.829l10.829-0.098
	l11.815-11.815l0.098-10.829l10.829-0.098l8.859-8.859c7.79-7.79,7.79-20.419,0-28.209L417.67,19.682L19.684,417.667l88.494,88.494
	c7.79,7.79,20.419,7.79,28.209,0l8.856-8.856l0.098-10.829L156.171,486.377z"/>
<g>
	<path style="fill:#EFEDEE;" d="M224.398,418.149l-28.454-28.454c-3.018-3.017-7.91-3.017-10.927,0
		c-3.017,3.017-3.017,7.91,0,10.927l28.454,28.454L224.398,418.149z"/>
	<path style="fill:#EFEDEE;" d="M201.656,440.892l-28.454-28.454c-3.018-3.017-7.91-3.017-10.927,0
		c-3.017,3.017-3.017,7.91,0,10.927l28.454,28.454L201.656,440.892z"/>
	<path style="fill:#EFEDEE;" d="M178.914,463.633l-28.453-28.453c-3.018-3.017-7.91-3.017-10.927,0
		c-3.017,3.017-3.017,7.91,0,10.927l28.454,28.454L178.914,463.633z"/>
	<path style="fill:#EFEDEE;" d="M156.173,486.375l-41.989-41.989c-3.018-3.017-7.91-3.016-10.928,0
		c-3.016,3.017-3.017,7.91,0,10.927l41.99,41.99L156.173,486.375z"/>
	<path style="fill:#EFEDEE;" d="M247.14,395.407l-28.453-28.453c-3.018-3.017-7.91-3.017-10.927,0c-3.017,3.017-3.017,7.91,0,10.927
		l28.454,28.454L247.14,395.407z"/>
	<path style="fill:#EFEDEE;" d="M269.881,372.666l-41.989-41.989c-3.018-3.017-7.91-3.017-10.927,0
		c-3.017,3.017-3.017,7.91,0,10.927l41.99,41.99L269.881,372.666z"/>
	<path style="fill:#EFEDEE;" d="M292.623,349.925l-28.454-28.454c-3.018-3.017-7.91-3.017-10.927,0
		c-3.017,3.017-3.017,7.91,0,10.927l28.454,28.454L292.623,349.925z"/>
	<path style="fill:#EFEDEE;" d="M315.366,327.182l-28.454-28.454c-3.018-3.017-7.91-3.017-10.928,0
		c-3.016,3.017-3.016,7.909,0,10.927l28.454,28.454L315.366,327.182z"/>
	<path style="fill:#EFEDEE;" d="M338.107,304.44l-28.454-28.453c-3.017-3.017-7.91-3.017-10.927,0
		c-3.017,3.017-3.016,7.909,0,10.927l28.454,28.454L338.107,304.44z"/>
	<path style="fill:#EFEDEE;" d="M360.848,281.699l-28.454-28.454c-3.018-3.017-7.91-3.017-10.928,0
		c-3.016,3.017-3.017,7.909,0,10.927l28.454,28.454L360.848,281.699z"/>
	<path style="fill:#EFEDEE;" d="M383.59,258.957l-41.989-41.989c-3.017-3.017-7.909-3.017-10.927,0
		c-3.017,3.017-3.017,7.91,0,10.927l41.99,41.99L383.59,258.957z"/>
	<path style="fill:#EFEDEE;" d="M406.332,236.215l-28.454-28.454c-3.018-3.017-7.91-3.017-10.927,0
		c-3.017,3.017-3.017,7.91,0,10.927l28.454,28.454L406.332,236.215z"/>
	<path style="fill:#EFEDEE;" d="M429.075,213.473l-28.453-28.453c-3.018-3.017-7.91-3.017-10.928,0
		c-3.016,3.017-3.016,7.909,0,10.926l28.453,28.454L429.075,213.473z"/>
	<path style="fill:#EFEDEE;" d="M451.816,190.732l-28.454-28.454c-3.018-3.017-7.91-3.017-10.927,0
		c-3.017,3.017-3.017,7.91,0,10.927l28.454,28.454L451.816,190.732z"/>
	<path style="fill:#EFEDEE;" d="M474.558,167.989l-28.454-28.454c-3.018-3.017-7.91-3.017-10.927,0
		c-3.017,3.017-3.017,7.91,0,10.927l28.454,28.454L474.558,167.989z"/>
	<path style="fill:#EFEDEE;" d="M497.3,145.248l-41.989-41.989c-3.018-3.017-7.91-3.017-10.927,0s-3.017,7.91,0,10.927l41.989,41.99
		L497.3,145.248z"/>
</g>
<g>
	<path style="fill:#3A484A;" d="M196.022,306.652l-9.021-9.021c-3.017-3.017-3.017-7.91,0-10.927c3.017-3.017,7.909-3.017,10.927,0
		l9.021,9.021c3.017,3.017,3.017,7.91,0,10.927C203.931,309.669,199.04,309.669,196.022,306.652z"/>
	<path style="fill:#3A484A;" d="M295.722,206.951l-9.021-9.021c-3.017-3.017-3.017-7.91,0-10.927c3.017-3.017,7.909-3.017,10.927,0
		l9.021,9.021c3.017,3.017,3.017,7.91,0,10.927S298.74,209.968,295.722,206.951z"/>
	<path style="fill:#3A484A;" d="M232.942,268.479c-1.522-1.522-2.403-3.667-2.248-5.984c0.286-4.258,3.969-7.477,8.227-7.191
		c4.259,0.286,8.547-1.396,11.767-4.614c3.218-3.218,4.901-7.507,4.614-11.767c-0.285-4.258,2.934-7.941,7.192-8.226
		c4.258-0.286,7.94,2.933,8.227,7.192c0.584,8.708-2.735,17.356-9.106,23.728c-6.372,6.372-15.021,9.69-23.729,9.105
		C235.944,270.592,234.217,269.755,232.942,268.479z"/>
</g>
<g>
</g>
<g>
</g>
<g>
</g>
<g>
</g>
<g>
</g>
<g>
</g>
<g>
</g>
<g>
</g>
<g>
</g>
<g>
</g>
<g>
</g>
<g>
</g>
<g>
</g>
<g>
</g>
<g>
</g>
</svg>
