<?xml version="1.0" encoding="iso-8859-1"?>
<!-- Generator: Adobe Illustrator 19.0.0, SVG Export Plug-In . SVG Version: 6.00 Build 0)  -->
<svg version="1.1" id="Capa_1" xmlns="http://www.w3.org/2000/svg" xmlns:xlink="http://www.w3.org/1999/xlink" x="0px" y="0px"
	 viewBox="0 0 512.001 512.001" style="enable-background:new 0 0 512.001 512.001;" xml:space="preserve">
<g>
	<path style="fill:#3A484A;" d="M248.083,495.213l-9.276-23.335l-19.113-25.181l-19.113,25.181l-9.276,23.335
		c-3.2,8.049,2.731,16.788,11.392,16.788h33.993C245.352,512,251.281,503.262,248.083,495.213z"/>
	<path style="fill:#3A484A;" d="M370.557,495.213l9.276-23.335l19.113-25.181l19.113,25.181l9.276,23.335
		c3.2,8.049-2.731,16.788-11.392,16.788h-33.993C373.288,512,367.358,503.262,370.557,495.213z"/>
</g>
<g>
	<path style="fill:#506366;" d="M219.694,340.105H115.518c-34.487,0-62.546-28.058-62.546-62.546s28.058-62.546,62.546-62.546
		h28.114v31.262h-28.114c-17.25,0-31.285,14.035-31.285,31.285s14.034,31.285,31.285,31.285h104.176L219.694,340.105
		L219.694,340.105z"/>
	<rect x="200.577" y="207.437" style="fill:#506366;" width="38.23" height="264.437"/>
	<rect x="379.828" y="207.437" style="fill:#506366;" width="38.23" height="264.437"/>
</g>
<path style="fill:#FADC60;" d="M447.46,195.453L416.6,24.698C414.016,10.4,401.569,0,387.04,0H231.6
	c-14.53,0-26.976,10.399-29.56,24.698l-30.859,170.756c-3.313,18.331,10.774,35.19,29.4,35.19h217.477
	C436.686,230.643,450.772,213.783,447.46,195.453z"/>
<path style="fill:#E6CB59;" d="M202.085,195.453l30.86-170.756C235.529,10.4,247.975,0,262.505,0H231.6
	c-14.53,0-26.976,10.4-29.56,24.698l-30.859,170.756c-3.313,18.331,10.774,35.191,29.4,35.191h30.905
	C212.859,230.643,198.773,213.784,202.085,195.453z"/>
<path style="fill:#FADC60;" d="M423.804,297.349H194.836c-19.454,0-35.225,15.771-35.225,35.225l0,0
	c0,10.507,8.518,19.024,19.024,19.024h261.37c10.507,0,19.024-8.518,19.024-19.024l0,0
	C459.03,313.119,443.259,297.349,423.804,297.349z"/>
<path style="fill:#E6CB59;" d="M190.515,332.574L190.515,332.574c0-19.455,15.771-35.225,35.225-35.225h-30.905
	c-19.454,0-35.225,15.771-35.225,35.225l0,0c0,10.507,8.518,19.024,19.024,19.024h30.905
	C199.033,351.599,190.515,343.081,190.515,332.574z"/>
<path style="fill:#FD6F71;" d="M286.118,207.441h-145.77c-12.814,0-23.202,10.388-23.202,23.202l0,0
	c0,12.814,10.388,23.202,23.202,23.202h145.77c12.814,0,23.202-10.388,23.202-23.202l0,0
	C309.32,217.829,298.931,207.441,286.118,207.441z"/>
<path style="fill:#E36465;" d="M148.051,230.643L148.051,230.643c0-12.814,10.388-23.202,23.202-23.202h-30.905
	c-12.814,0-23.202,10.387-23.202,23.202l0,0c0,12.814,10.388,23.202,23.202,23.202h30.905
	C158.439,253.846,148.051,243.458,148.051,230.643z"/>
<g>
	<path style="fill:#3A484A;" d="M232.568,124.68c-4.267,0-7.726-3.459-7.726-7.726v-13.891c0-4.267,3.459-7.726,7.726-7.726
		c4.267,0,7.726,3.459,7.726,7.726v13.891C240.294,121.221,236.835,124.68,232.568,124.68z"/>
	<path style="fill:#3A484A;" d="M386.071,124.68c-4.267,0-7.726-3.459-7.726-7.726v-13.891c0-4.267,3.459-7.726,7.726-7.726
		s7.726,3.459,7.726,7.726v13.891C393.798,121.221,390.339,124.68,386.071,124.68z"/>
	<path style="fill:#3A484A;" d="M309.32,132.095c-9.613,0-18.637-4.018-24.76-11.023c-2.808-3.213-2.481-8.094,0.731-10.902
		s8.093-2.481,10.902,0.731c3.189,3.648,7.974,5.74,13.127,5.74c5.153,0,9.937-2.092,13.127-5.74
		c2.807-3.213,7.688-3.541,10.902-0.731c3.213,2.808,3.541,7.689,0.731,10.902C327.957,128.077,318.932,132.095,309.32,132.095z"/>
</g>
<g>
</g>
<g>
</g>
<g>
</g>
<g>
</g>
<g>
</g>
<g>
</g>
<g>
</g>
<g>
</g>
<g>
</g>
<g>
</g>
<g>
</g>
<g>
</g>
<g>
</g>
<g>
</g>
<g>
</g>
</svg>
