<?xml version="1.0" encoding="iso-8859-1"?>
<!-- Generator: Adobe Illustrator 19.0.0, SVG Export Plug-In . SVG Version: 6.00 Build 0)  -->
<svg version="1.1" id="Capa_1" xmlns="http://www.w3.org/2000/svg" xmlns:xlink="http://www.w3.org/1999/xlink" x="0px" y="0px"
	 viewBox="0 0 512.001 512.001" style="enable-background:new 0 0 512.001 512.001;" xml:space="preserve">
<g>
	<path style="fill:#3A484A;" d="M57.796,425.458L5.954,477.3c-7.939,7.939-7.939,20.809,0,28.747c7.939,7.939,20.809,7.939,28.747,0
		l51.841-51.841L57.796,425.458z"/>
	<path style="fill:#3A484A;" d="M347.196,371.893l101.619-101.619c15.972-15.972,15.972-41.869,0-57.841l0,0l-63.822,5.608
		l-93.162,93.162l23.041,35.172c-15.761,15.761-15.761,41.314,0,57.075l0,0c8.337,8.337,21.804,9.334,30.832,1.75
		C355.991,396.56,356.488,381.185,347.196,371.893z"/>
</g>
<polygon style="fill:#FADC60;" points="448.815,212.433 481.091,180.157 430.595,69.143 331.845,30.91 299.568,63.187 
	341.09,189.274 448.815,212.433 448.815,212.433 448.815,212.433 "/>
<polygon style="fill:#E6CB59;" points="321.422,85.04 353.699,52.764 437.99,85.399 430.595,69.143 331.845,30.91 299.568,63.187 
	341.09,189.274 356.864,192.665 "/>
<polygon style="fill:#FADC60;" points="170.619,345.917 71.339,291.416 39.062,323.694 101.839,413.772 188.309,472.939 
	220.585,440.663 "/>
<polygon style="fill:#E6CB59;" points="60.916,345.547 93.192,313.27 177.935,359.789 170.619,345.917 71.339,291.416 
	39.062,323.694 101.839,413.772 114.499,422.436 "/>
<path style="fill:#6EE3FF;" d="M188.309,472.939c-20.61,20.61-47.617,30.912-74.623,30.912s-54.021-10.309-74.623-30.912
	c-41.212-41.212-41.212-108.034,0-149.246L188.309,472.939z"/>
<path style="fill:#42C3E2;" d="M60.916,345.547l-21.853-21.853c-41.212,41.212-41.212,108.034,0,149.246
	c3.712,3.712,7.635,7.084,11.724,10.128C20.043,441.748,23.416,383.047,60.916,345.547z"/>
<rect x="98.684" y="146.394" transform="matrix(-0.7071 0.7071 -0.7071 -0.7071 622.0968 246.1684)" style="fill:#6EE3FF;" width="322.763" height="211.061"/>
<rect x="34.999" y="172.775" transform="matrix(-0.7071 0.7071 -0.7071 -0.7071 468.3399 182.4615)" style="fill:#42C3E2;" width="322.763" height="30.905"/>
<path style="fill:#6EE3FF;" d="M481.091,180.157L331.845,30.91c41.212-41.212,108.034-41.212,149.246,0
	S522.304,138.944,481.091,180.157z"/>
<path style="fill:#42C3E2;" d="M491.22,42.635c-3.044-4.09-6.416-8.013-10.128-11.726c-41.212-41.212-108.034-41.212-149.246,0
	l21.853,21.853C391.199,15.264,449.9,11.891,491.22,42.635z"/>
<g>
	<path style="fill:#3A484A;" d="M215.104,205.931c-1.977,0-3.955-0.754-5.463-2.263c-3.018-3.017-3.018-7.909-0.001-10.927
		l8.931-8.931c3.018-3.017,7.911-3.017,10.926,0c3.018,3.017,3.018,7.909,0.001,10.927l-8.931,8.931
		C219.058,205.177,217.08,205.931,215.104,205.931z"/>
	<path style="fill:#3A484A;" d="M313.796,304.625c-1.978,0-3.955-0.754-5.464-2.263c-3.017-3.017-3.017-7.91,0.001-10.927
		l8.932-8.931c3.017-3.017,7.91-3.016,10.926,0c3.017,3.017,3.017,7.91-0.001,10.927l-8.932,8.931
		C317.751,303.87,315.773,304.625,313.796,304.625z"/>
	<path style="fill:#3A484A;" d="M275.812,266.885c-7.969,0-15.747-3.256-21.594-9.102c-6.324-6.324-9.618-14.908-9.036-23.55
		c0.286-4.258,3.97-7.477,8.228-7.191c4.257,0.286,7.476,3.97,7.19,8.227c-0.282,4.193,1.374,8.416,4.545,11.586
		c3.17,3.17,7.391,4.825,11.586,4.545c4.28-0.287,7.942,2.934,8.227,7.192c0.285,4.258-2.934,7.941-7.191,8.227
		C277.117,266.863,276.464,266.885,275.812,266.885z"/>
</g>
<g>
</g>
<g>
</g>
<g>
</g>
<g>
</g>
<g>
</g>
<g>
</g>
<g>
</g>
<g>
</g>
<g>
</g>
<g>
</g>
<g>
</g>
<g>
</g>
<g>
</g>
<g>
</g>
<g>
</g>
</svg>
