<?xml version="1.0" encoding="iso-8859-1"?>
<!-- Generator: Adobe Illustrator 19.0.0, SVG Export Plug-In . SVG Version: 6.00 Build 0)  -->
<svg version="1.1" id="Capa_1" xmlns="http://www.w3.org/2000/svg" xmlns:xlink="http://www.w3.org/1999/xlink" x="0px" y="0px"
	 viewBox="0 0 512.001 512.001" style="enable-background:new 0 0 512.001 512.001;" xml:space="preserve">
<g>
	<path style="fill:#506366;" d="M276.307,233.58c9.31-6.065,21.771-3.438,27.835,5.87l135.912,208.545l-24.01,15.758l-24.01-15.758
		L270.437,261.416C264.372,252.108,267,239.646,276.307,233.58z"/>
	<path style="fill:#506366;" d="M298.274,233.58c-9.31-6.065-21.771-3.438-27.835,5.87L134.527,447.994l24.01,15.758l24.01-15.758
		l121.596-186.579C310.209,252.108,307.58,239.646,298.274,233.58z"/>
</g>
<polygon style="fill:#937FE6;" points="108.405,259.407 73.115,250.432 29.479,267.723 23.004,293.247 45.204,307.409 
	88.84,290.118 "/>
<path style="fill:#B6A4FF;" d="M464.514,118.304l-46.546-59.703L84.005,222.265c-10.424,5.109-15.167,17.375-10.89,28.167
	l15.725,39.686c4.276,10.792,16.134,16.481,27.228,13.064l355.425-109.497L464.514,118.304z"/>
<g>
	<path style="fill:#FF98C9;" d="M511.06,178.007L457.535,42.924c-2.711-6.841-10.455-10.191-17.297-7.479l-14.79,5.861
		c-6.841,2.711-10.191,10.455-7.479,17.297l53.525,135.084c2.711,6.841,10.455,10.191,17.297,7.479l14.79-5.861
		C510.422,192.593,513.771,184.849,511.06,178.007z"/>
	<path style="fill:#FF98C9;" d="M45.204,307.409l-15.725-39.686c-2.317-5.848-8.937-8.71-14.784-6.393l-7.498,2.971
		c-5.848,2.317-8.71,8.937-6.393,14.784l15.725,39.686c2.317,5.848,8.937,8.71,14.784,6.393l7.498-2.971
		C44.659,319.876,47.522,313.256,45.204,307.409z"/>
</g>
<g>
	<path style="fill:#3A484A;" d="M304.143,239.45c-6.065-9.308-18.527-11.935-27.835-5.87c-9.308,6.067-11.936,18.529-5.87,27.837
		l41.982,64.417c13.059-4.364,24.629-12.01,33.694-21.983L304.143,239.45z"/>
	<path style="fill:#3A484A;" d="M298.274,233.58c-9.31-6.065-21.771-3.438-27.835,5.87l-41.971,64.4
		c9.066,9.974,20.636,17.619,33.694,21.983l41.982-64.417C310.209,252.108,307.581,239.646,298.274,233.58z"/>
</g>
<path style="fill:#937FE6;" d="M287.29,170.939c-43.833,0-79.494,35.661-79.494,79.494c0,8.143,1.235,16.002,3.521,23.405
	l151.947-46.81C353.247,194.582,322.98,170.939,287.29,170.939z"/>
<circle style="fill:#EFEDEE;" cx="287.287" cy="250.427" r="53.734"/>
<circle style="fill:#506366;" cx="287.287" cy="250.427" r="23.226"/>
<g>
	<path style="fill:#FF98C9;" d="M392.034,447.994h48.021c8.147,0,14.751,6.605,14.751,14.751l0,0
		c0,8.147-6.604,14.751-14.751,14.751h-48.021c-8.147,0-14.751-6.605-14.751-14.751l0,0
		C377.281,454.599,383.886,447.994,392.034,447.994z"/>
	<path style="fill:#FF98C9;" d="M182.547,447.994h-48.021c-8.147,0-14.751,6.605-14.751,14.751l0,0
		c0,8.147,6.604,14.751,14.751,14.751h48.021c8.147,0,14.751-6.605,14.751-14.751l0,0
		C197.299,454.599,190.694,447.994,182.547,447.994z"/>
</g>
<g>
</g>
<g>
</g>
<g>
</g>
<g>
</g>
<g>
</g>
<g>
</g>
<g>
</g>
<g>
</g>
<g>
</g>
<g>
</g>
<g>
</g>
<g>
</g>
<g>
</g>
<g>
</g>
<g>
</g>
</svg>
