<?xml version="1.0" encoding="iso-8859-1"?>
<!-- Generator: Adobe Illustrator 19.0.0, SVG Export Plug-In . SVG Version: 6.00 Build 0)  -->
<svg version="1.1" id="Capa_1" xmlns="http://www.w3.org/2000/svg" xmlns:xlink="http://www.w3.org/1999/xlink" x="0px" y="0px"
	 viewBox="0 0 511.999 511.999" style="enable-background:new 0 0 511.999 511.999;" xml:space="preserve">
<path style="fill:#FD6F71;" d="M314.991,129.57c-10.181,0-18.435-8.254-18.435-18.435V77.426c0-22.363-18.194-40.556-40.556-40.556
	c-22.363,0-40.556,18.194-40.556,40.556v33.71c0,10.181-8.254,18.435-18.435,18.435c-10.181,0-18.435-8.254-18.435-18.435v-33.71
	C178.573,34.734,213.307,0,256,0s77.426,34.734,77.426,77.426v33.71C333.426,121.317,325.172,129.57,314.991,129.57z"/>
<g>
	<path style="fill:#42C3E2;" d="M69.766,263.662c-33.635,13.961-56.331,45.919-58.43,82.275l-4.118,71.333
		c-2.191,37.954,27.996,69.935,66.014,69.935h44.771L69.766,263.662z"/>
	<path style="fill:#42C3E2;" d="M442.234,263.662c33.635,13.961,56.331,45.919,58.43,82.275l4.118,71.333
		c2.191,37.954-27.996,69.935-66.014,69.935h-44.771L442.234,263.662z"/>
</g>
<g>
	<path style="fill:#E36465;" d="M197.008,129.57c10.181,0,18.435-8.254,18.435-18.435V77.426c0-9.883,3.557-18.947,9.453-25.99
		c-15.37,0.883-29.887,2.56-43.513,5.369c-1.818,6.57-2.81,13.48-2.81,20.621v33.71C178.573,121.317,186.827,129.57,197.008,129.57z
		"/>
	<path style="fill:#E36465;" d="M296.556,77.426v33.71c0,10.181,8.254,18.435,18.435,18.435s18.435-8.254,18.435-18.435v-33.71
		c0-7.141-0.992-14.051-2.81-20.621c-13.626-2.81-28.142-4.486-43.513-5.369C292.999,58.479,296.556,67.543,296.556,77.426z"/>
</g>
<path style="fill:#FADC60;" d="M449.991,437.816c0-318.253-48.62-361.442-193.991-361.442S62.008,119.563,62.008,437.816H449.991z"
	/>
<path style="fill:#E6CB59;" d="M449.991,437.816c0-57.069-1.564-105.293-4.969-146.009c-16.094-22.481-39.45-39.516-69.451-50.623
	c-31.474-11.653-70.587-17.318-119.573-17.318s-88.099,5.665-119.572,17.318c-30.001,11.107-53.357,28.142-69.451,50.623
	c-3.405,40.716-4.969,88.939-4.969,146.009H449.991z"/>
<path style="fill:#FD6F71;" d="M256,249.62c-190.386,0-193.991,90.845-193.991,188.195c0,63.277,81.961,74.253,139.334,74.184
	c36.439-0.043,72.876-0.043,109.315,0c57.373,0.068,139.334-10.908,139.334-74.184C449.991,340.466,446.385,249.62,256,249.62z"/>
<path style="fill:#6EE3FF;" d="M310.7,475.131c-18.232-0.022-36.466-0.033-54.701-0.033s-36.467,0.011-54.702,0.033h-0.482
	c-32.262,0-59.094-3.786-77.595-10.95c-24.343-9.425-24.343-20.445-24.343-26.365c0-46.868,1.386-84.676,18.821-109.296
	C137.726,300.238,182.964,286.49,256,286.49S374.274,300.238,394.3,328.52c17.435,24.62,18.82,62.428,18.82,109.296
	c0,5.92,0,16.942-24.342,26.366c-18.5,7.163-45.331,10.949-77.596,10.949H310.7z"/>
<g>
	<path style="fill:#3A484A;" d="M178.412,391.81c-4.267,0-7.726-3.459-7.726-7.726v-14.042c0-4.267,3.459-7.726,7.726-7.726
		c4.267,0,7.726,3.459,7.726,7.726v14.042C186.138,388.35,182.679,391.81,178.412,391.81z"/>
	<path style="fill:#3A484A;" d="M333.588,391.81c-4.267,0-7.726-3.459-7.726-7.726v-14.042c0-4.267,3.459-7.726,7.726-7.726
		c4.267,0,7.726,3.459,7.726,7.726v14.042C341.314,388.35,337.855,391.81,333.588,391.81z"/>
	<path style="fill:#3A484A;" d="M256,399.305c-9.693,0-18.794-4.051-24.967-11.114c-2.808-3.213-2.481-8.094,0.732-10.902
		c3.213-2.808,8.093-2.481,10.902,0.732c3.239,3.706,8.098,5.831,13.333,5.831c5.234,0,10.094-2.125,13.333-5.831
		c2.809-3.213,7.689-3.541,10.902-0.732c3.213,2.808,3.541,7.689,0.732,10.902C274.792,395.254,265.693,399.305,256,399.305z"/>
</g>
<path style="fill:#EFEDEE;" d="M289.695,158.33h-67.39c-9.317,0-16.869,7.552-16.869,16.869v22.438
	c0,9.317,7.552,16.869,16.869,16.869h67.39c9.317,0,16.869-7.552,16.869-16.869v-22.438
	C306.564,165.883,299.011,158.33,289.695,158.33z"/>
<g>
</g>
<g>
</g>
<g>
</g>
<g>
</g>
<g>
</g>
<g>
</g>
<g>
</g>
<g>
</g>
<g>
</g>
<g>
</g>
<g>
</g>
<g>
</g>
<g>
</g>
<g>
</g>
<g>
</g>
</svg>
