<?xml version="1.0" encoding="iso-8859-1"?>
<!-- Generator: Adobe Illustrator 19.0.0, SVG Export Plug-In . SVG Version: 6.00 Build 0)  -->
<svg version="1.1" id="Capa_1" xmlns="http://www.w3.org/2000/svg" xmlns:xlink="http://www.w3.org/1999/xlink" x="0px" y="0px"
	 viewBox="0 0 511.999 511.999" style="enable-background:new 0 0 511.999 511.999;" xml:space="preserve">
<path style="fill:#D2D2D2;" d="M293.428,42.527L256.562,5.661c-7.543-7.543-19.778-7.543-27.321,0l-43.96,43.96l14.544,49.65
	l49.65,14.544l43.96-43.96C300.977,62.312,300.977,50.077,293.428,42.527z"/>
<path style="fill:#B8B8B8;" d="M207.134,71.475l43.96-43.96c7.543-7.543,19.778-7.543,27.321,0L256.562,5.661
	c-7.543-7.543-19.778-7.543-27.321,0l-43.96,43.96l14.544,49.65l16.902,4.951L207.134,71.475z"/>
<path style="fill:#D2D2D2;" d="M506.34,255.439l-36.866-36.866c-7.549-7.549-19.785-7.549-27.328-0.006l-43.96,43.96l14.544,49.65
	l49.65,14.544l43.96-43.96C513.883,275.218,513.889,262.989,506.34,255.439z"/>
<path style="fill:#B8B8B8;" d="M420.039,284.38l43.96-43.96c7.543-7.543,19.778-7.543,27.328,0.006l-21.853-21.853
	c-7.549-7.549-19.785-7.549-27.328-0.006l-43.96,43.96l14.544,49.65l16.902,4.951L420.039,284.38z"/>
<path style="fill:#FD6F71;" d="M462.38,326.72L335.558,453.542c-36.725,36.725-86.322,58.102-138.254,58.448
	c-52.844,0.36-102.582-20.055-139.911-57.383S-0.349,367.541,0.005,314.703c0.353-51.94,21.723-101.529,58.455-138.261
	L185.281,49.621l64.194,64.194L122.409,240.881c-41.033,41.033-42.047,107.833-1.258,149.097
	c40.968,41.443,108.006,41.578,149.149,0.437l127.887-127.887L462.38,326.72z"/>
<g>
	<path style="fill:#E36465;" d="M143.004,411.831c40.969,41.443,108.006,41.578,149.149,0.436L420.039,284.38l-21.853-21.853
		L270.299,390.413c-37.272,37.272-95.796,40.666-136.937,10.163C136.267,404.496,139.476,408.26,143.004,411.831z"/>
	<path style="fill:#E36465;" d="M21.858,336.557c0.353-51.94,21.723-101.529,58.455-138.261L207.134,71.475l-21.853-21.853
		L58.459,176.443C21.728,213.174,0.357,262.765,0.005,314.703c-0.353,52.838,20.061,102.575,57.389,139.904
		c3.666,3.666,7.456,7.164,11.354,10.5C38.114,429.329,21.539,384.206,21.858,336.557z"/>
</g>
<g>
</g>
<g>
</g>
<g>
</g>
<g>
</g>
<g>
</g>
<g>
</g>
<g>
</g>
<g>
</g>
<g>
</g>
<g>
</g>
<g>
</g>
<g>
</g>
<g>
</g>
<g>
</g>
<g>
</g>
</svg>
