<?xml version="1.0" encoding="iso-8859-1"?>
<!-- Generator: Adobe Illustrator 19.0.0, SVG Export Plug-In . SVG Version: 6.00 Build 0)  -->
<svg version="1.1" id="Capa_1" xmlns="http://www.w3.org/2000/svg" xmlns:xlink="http://www.w3.org/1999/xlink" x="0px" y="0px"
	 viewBox="0 0 512 512" style="enable-background:new 0 0 512 512;" xml:space="preserve">
<path style="fill:#FADC60;" d="M471.698,10.983H40.302C18.048,10.983,0,29.031,0,51.295v295.824l256,38.24l256-38.24V51.295
	C512,29.031,493.952,10.983,471.698,10.983z"/>
<path style="fill:#E6CB59;" d="M30.905,347.119V51.295c0-22.264,18.048-40.312,40.302-40.312H40.302
	C18.048,10.983,0,29.031,0,51.295v295.824l256,38.24l15.453-2.309L30.905,347.119z"/>
<path style="fill:#58B78C;" d="M512,347.118v113.586c0,22.264-18.048,40.312-40.302,40.312H40.302
	C18.048,501.016,0,482.968,0,460.704V347.118H512z"/>
<path style="fill:#46926F;" d="M30.905,460.704V347.119H0v113.586c0,22.264,18.048,40.312,40.302,40.312h30.905
	C48.953,501.016,30.905,482.969,30.905,460.704z"/>
<g>
	<path style="fill:#3A484A;" d="M139.522,436.708c-4.268,0-7.726-3.459-7.726-7.726v-21.081c0-4.267,3.458-7.726,7.726-7.726
		s7.726,3.459,7.726,7.726v21.081C147.248,433.248,143.789,436.708,139.522,436.708z"/>
	<path style="fill:#3A484A;" d="M372.479,436.708c-4.268,0-7.726-3.459-7.726-7.726v-21.081c0-4.267,3.458-7.726,7.726-7.726
		s7.726,3.459,7.726,7.726v21.081C380.206,433.248,376.746,436.708,372.479,436.708z"/>
	<path style="fill:#3A484A;" d="M256,447.96c-13.434,0-26.033-5.599-34.567-15.36c-2.809-3.212-2.481-8.094,0.731-10.902
		c3.213-2.808,8.094-2.482,10.902,0.731c5.6,6.405,13.958,10.078,22.933,10.078c8.975,0,17.333-3.673,22.932-10.077
		c2.808-3.213,7.69-3.541,10.901-0.732c3.213,2.808,3.542,7.689,0.732,10.902C282.034,442.361,269.435,447.96,256,447.96z"/>
</g>
<path style="fill:#FD6F71;" d="M391.224,93.732c-25.78-10.58-56.512-18.186-90.152-21.818L256,178.222l45.07,106.31
	c33.642-3.632,64.372-11.238,90.152-21.818l36.505-81.304L391.224,93.732z"/>
<path style="fill:#6EE3FF;" d="M210.93,71.913c-33.642,3.632-64.372,11.238-90.152,21.818l-36.506,87.678l36.506,81.304
	c25.78,10.58,56.512,18.186,90.152,21.818L256,178.222L210.93,71.913z"/>
<path style="fill:#E36465;" d="M301.07,105.909c33.642,3.632,64.372,11.238,90.152,21.818c6.119,2.508,11.955,5.186,17.491,8.013
	l-17.491-42.009l0,0c-25.78-10.58-56.512-18.186-90.152-21.818l0,0l-13.886,32.752C291.863,105.008,296.497,105.418,301.07,105.909z
	"/>
<path style="fill:#42C3E2;" d="M120.776,127.728c25.78-10.58,56.512-18.186,90.152-21.818c4.574-0.491,9.208-0.901,13.886-1.244
	L210.93,71.913l0,0c-33.642,3.632-64.372,11.238-90.152,21.818l0,0l-17.491,42.009C108.821,132.913,114.657,130.236,120.776,127.728
	z"/>
<path style="fill:#FA9F6A;" d="M301.07,71.913v212.618c-14.532,1.562-29.616,2.39-45.07,2.39c-15.456,0-30.54-0.828-45.07-2.39
	V71.913c14.532-1.562,29.616-2.39,45.07-2.39C271.456,69.523,286.54,70.352,301.07,71.913z"/>
<path style="fill:#FF98C9;" d="M120.776,93.732v168.982c-48.618-19.928-79.7-50.372-79.7-84.49S72.158,113.659,120.776,93.732z"/>
<path style="fill:#B6A4FF;" d="M470.924,178.222c0,34.12-31.082,64.562-79.7,84.49V93.732
	C439.842,113.659,470.924,144.103,470.924,178.222z"/>
<path style="fill:#937FE6;" d="M468.289,195.22c0.6-1.93,1.094-3.876,1.493-5.837c0.049-0.243,0.1-0.486,0.145-0.729
	c0.102-0.535,0.197-1.07,0.282-1.608c0.089-0.557,0.167-1.116,0.239-1.674c0.063-0.486,0.12-0.972,0.17-1.46
	c0.069-0.676,0.129-1.354,0.173-2.033c0.02-0.291,0.037-0.581,0.051-0.874c0.046-0.925,0.079-1.852,0.079-2.783
	c0-14.927-5.949-29.151-16.714-42.098c-13.839-16.647-35.638-31.184-62.986-42.392v33.996
	C431.601,144.277,459.86,168.083,468.289,195.22z"/>
<path style="fill:#E0824A;" d="M273.222,69.867c-5.681-0.228-11.426-0.344-17.222-0.344c-5.796,0-11.539,0.116-17.222,0.344
	c-9.469,0.38-18.768,1.07-27.85,2.046v33.996c14.532-1.562,29.616-2.39,45.07-2.39c15.456,0,30.54,0.829,45.07,2.39V71.913
	C291.988,70.938,282.691,70.248,273.222,69.867z"/>
<path style="fill:#EB6DA8;" d="M57.79,136.124c-10.764,12.947-16.714,27.171-16.714,42.098c0,0.93,0.033,1.857,0.079,2.783
	c0.014,0.292,0.032,0.582,0.052,0.874c0.044,0.679,0.105,1.357,0.173,2.033c0.05,0.487,0.107,0.975,0.17,1.46
	c0.072,0.559,0.15,1.118,0.239,1.674c0.087,0.537,0.181,1.073,0.282,1.608c0.045,0.244,0.097,0.487,0.145,0.729
	c0.399,1.961,0.893,3.907,1.493,5.837c8.428-27.137,36.689-50.943,77.066-67.492V93.732C93.429,104.941,71.63,119.478,57.79,136.124
	z"/>
<g>
</g>
<g>
</g>
<g>
</g>
<g>
</g>
<g>
</g>
<g>
</g>
<g>
</g>
<g>
</g>
<g>
</g>
<g>
</g>
<g>
</g>
<g>
</g>
<g>
</g>
<g>
</g>
<g>
</g>
</svg>
