<?xml version="1.0" encoding="iso-8859-1"?>
<!-- Generator: Adobe Illustrator 19.0.0, SVG Export Plug-In . SVG Version: 6.00 Build 0)  -->
<svg version="1.1" id="Capa_1" xmlns="http://www.w3.org/2000/svg" xmlns:xlink="http://www.w3.org/1999/xlink" x="0px" y="0px"
	 viewBox="0 0 512 512" style="enable-background:new 0 0 512 512;" xml:space="preserve">
<g>
	<polygon style="fill:#E0824A;" points="110.208,236.485 18.978,267.803 18.978,485.385 143.761,485.385 159.184,415.252 
		159.184,267.803 	"/>
	<polygon style="fill:#E0824A;" points="401.792,236.485 493.022,267.803 493.022,485.385 368.239,485.385 352.817,415.252 
		352.817,267.803 	"/>
</g>
<path style="fill:#C86D5C;" d="M44.235,196.986L1.349,256.566c-3.377,4.692-0.025,11.237,5.757,11.237h152.078v-70.817H44.235z"/>
<path style="fill:#EFEDEE;" d="M94.141,321.395H68.598c-8.326,0-15.076,6.75-15.076,15.076v55.128l27.847,14.309l27.847-14.309
	v-55.128C109.217,328.145,102.467,321.395,94.141,321.395z"/>
<path style="fill:#C86D5C;" d="M467.765,196.986l42.886,59.579c3.377,4.692,0.025,11.237-5.757,11.237H352.817v-70.817H467.765z"/>
<path style="fill:#EFEDEE;" d="M417.859,321.395h25.543c8.326,0,15.076,6.75,15.076,15.076v55.128l-27.847,14.309l-27.847-14.309
	v-55.128C402.784,328.145,409.533,321.395,417.859,321.395z"/>
<polygon style="fill:#FA9F6A;" points="323.491,485.385 368.239,485.385 368.239,131.302 256,55.353 143.761,132.328 
	143.761,485.385 188.509,485.385 256,425.149 "/>
<path style="fill:#E0824A;" d="M143.761,132.328v58.064c5.345-0.814,10.419-2.857,14.898-6.035L256,115.309l97.341,69.049
	c4.479,3.176,9.554,5.22,14.898,6.034v-59.09L256,55.354L143.761,132.328z"/>
<path style="fill:#C86D5C;" d="M397.931,121.496L270.845,31.347c-8.89-6.308-20.797-6.308-29.69,0l-127.086,90.149
	c-4.126,2.927-5.098,8.644-2.172,12.77l19.091,26.913c2.927,4.126,8.644,5.098,12.77,2.172L256,83.732l112.241,79.619
	c4.126,2.927,9.843,1.954,12.77-2.172l19.09-26.912C403.029,130.14,402.057,124.423,397.931,121.496z"/>
<path style="fill:#E0824A;" d="M323.491,383.809v101.576H188.509V383.809c0-10.438,8.457-18.895,18.895-18.895h97.193
	C315.035,364.914,323.491,373.371,323.491,383.809z"/>
<circle style="fill:#EFEDEE;" cx="256" cy="206.892" r="60.915"/>
<g>
	<path style="fill:#3A484A;" d="M256,145.98c-2.619,0-5.194,0.184-7.726,0.505v18.556c0,4.267,3.459,7.726,7.726,7.726
		c4.267,0,7.726-3.459,7.726-7.726v-18.556C261.194,146.165,258.62,145.98,256,145.98z"/>
	<path style="fill:#3A484A;" d="M293.251,158.714l-13.12,13.12c-3.017,3.017-3.017,7.91,0,10.926
		c1.508,1.509,3.486,2.263,5.463,2.263s3.955-0.754,5.463-2.263l13.12-13.12C301.012,165.553,297.339,161.88,293.251,158.714z"/>
	<path style="fill:#3A484A;" d="M290.125,206.892c0,4.267,3.459,7.726,7.726,7.726h18.556c0.32-2.532,0.505-5.108,0.505-7.726
		s-0.184-5.194-0.505-7.726h-18.556C293.584,199.165,290.125,202.625,290.125,206.892z"/>
	<path style="fill:#3A484A;" d="M304.178,244.142l-13.12-13.12c-3.017-3.017-7.91-3.017-10.926,0c-3.017,3.017-3.017,7.91,0,10.926
		l13.12,13.12C297.339,251.903,301.012,248.231,304.178,244.142z"/>
	<path style="fill:#3A484A;" d="M256,241.016c-4.267,0-7.726,3.459-7.726,7.726v18.556c2.532,0.32,5.107,0.505,7.726,0.505
		s5.194-0.184,7.726-0.505v-18.556C263.727,244.476,260.267,241.016,256,241.016z"/>
	<path style="fill:#3A484A;" d="M220.943,231.022l-13.12,13.12c3.166,4.089,6.838,7.761,10.926,10.926l13.12-13.12
		c3.017-3.017,3.017-7.91,0-10.927C228.853,228.004,223.961,228.003,220.943,231.022z"/>
	<path style="fill:#3A484A;" d="M214.149,199.165h-18.556c-0.32,2.532-0.505,5.108-0.505,7.726s0.184,5.194,0.505,7.726h18.556
		c4.267,0,7.726-3.459,7.726-7.726C221.875,202.625,218.416,199.165,214.149,199.165z"/>
	<path style="fill:#3A484A;" d="M207.823,169.641l13.12,13.12c1.508,1.509,3.486,2.263,5.463,2.263c1.977,0,3.955-0.754,5.463-2.263
		c3.017-3.017,3.017-7.91,0-10.927l-13.12-13.12C214.661,161.88,210.99,165.553,207.823,169.641z"/>
	<path style="fill:#3A484A;" d="M256,214.618h12.984c4.267,0,7.726-3.459,7.726-7.726c0-4.267-3.459-7.726-7.726-7.726h-5.258
		v-5.258c0-4.267-3.459-7.726-7.726-7.726c-4.267,0-7.726,3.459-7.726,7.726v12.984C248.274,211.159,251.733,214.618,256,214.618z"
		/>
</g>
<g>
	<path style="fill:#FA9F6A;" d="M109.217,391.598H53.522c-6.028,0-10.914,4.886-10.914,10.914v17.705h77.522v-17.705
		C120.131,396.485,115.245,391.598,109.217,391.598z"/>
	<path style="fill:#FA9F6A;" d="M402.784,391.598h55.695c6.028,0,10.914,4.886,10.914,10.914v17.705H391.87v-17.705
		C391.87,396.485,396.756,391.598,402.784,391.598z"/>
</g>
<g>
</g>
<g>
</g>
<g>
</g>
<g>
</g>
<g>
</g>
<g>
</g>
<g>
</g>
<g>
</g>
<g>
</g>
<g>
</g>
<g>
</g>
<g>
</g>
<g>
</g>
<g>
</g>
<g>
</g>
</svg>
