<?xml version="1.0" encoding="iso-8859-1"?>
<!-- Generator: Adobe Illustrator 19.0.0, SVG Export Plug-In . SVG Version: 6.00 Build 0)  -->
<svg version="1.1" id="Capa_1" xmlns="http://www.w3.org/2000/svg" xmlns:xlink="http://www.w3.org/1999/xlink" x="0px" y="0px"
	 viewBox="0 0 512 512" style="enable-background:new 0 0 512 512;" xml:space="preserve">
<circle style="fill:#FADC60;" cx="93.572" cy="418.429" r="53.085"/>
<path style="fill:#E6CB59;" d="M77.891,402.742c16.93-16.93,42.447-20.027,62.527-9.306c-2.408-4.509-5.505-8.746-9.307-12.548
	c-20.731-20.731-54.343-20.731-75.073,0s-20.731,54.343,0,75.073c3.801,3.801,8.039,6.899,12.548,9.307
	C57.864,445.189,60.962,419.672,77.891,402.742z"/>
<path style="fill:#FD6F71;" d="M222.061,501.383c4.171-5.029,7.677-9.745,10.662-14.23l-85.186-122.691L24.846,279.276
	c-4.485,2.986-9.201,6.491-14.23,10.662c-13.364,11.085-14.222,31.307-1.944,43.585l169.805,169.805
	C190.755,515.606,210.977,514.748,222.061,501.383z"/>
<path style="fill:#E36465;" d="M32.47,311.793c5.029-4.172,9.744-7.678,14.23-10.662l109.794,76.23l-8.955-12.898L24.847,279.277
	c-4.485,2.986-9.201,6.491-14.23,10.662c-13.365,11.084-14.223,31.306-1.945,43.584l21.853,21.853
	C18.249,343.099,19.106,322.876,32.47,311.793z"/>
<path style="fill:#C86D5C;" d="M236.711,227.832L416.589,18.868c19.556-22.719,53.826-25.282,76.543-5.726
	c22.718,19.556,25.282,53.826,5.726,76.543c-1.721,2-3.794,4.039-5.726,5.726L284.168,275.289
	c-14.086,12.124-35.332,10.536-47.457-3.55C225.698,258.945,226.009,240.24,236.711,227.832z"/>
<path style="fill:#AD4F3D;" d="M258.564,249.685L438.442,40.721c16.975-19.72,45.032-24.242,67.002-12.306
	c-3.057-5.642-7.16-10.839-12.312-15.273c-22.718-19.556-56.988-16.992-76.543,5.726L236.711,227.832
	c-10.703,12.409-11.013,31.114,0,43.907c4.22,4.902,9.546,8.286,15.289,10.109C248.526,270.911,250.829,258.654,258.564,249.685z"/>
<path style="fill:#FADC60;" d="M232.723,487.154L24.846,279.277c40.66-27.081,62.36-11.352,124.606-59.099
	c78.84-60.47,136.248,6.123,136.248,6.123s66.593,57.408,6.123,136.248C244.075,424.794,259.805,446.494,232.723,487.154z"/>
<path style="fill:#E6CB59;" d="M296.126,237.728c-5.749-7.394-10.426-11.427-10.426-11.427s-57.408-66.593-136.248-6.123
	c-62.245,47.748-83.945,32.018-124.605,59.099L46.7,301.13c40.66-27.081,62.36-11.352,124.605-59.099
	C229.252,197.587,275.619,221.783,296.126,237.728z"/>
<g>
	<path style="fill:#3A484A;" d="M133.191,278.302c-3.017-3.017-3.017-7.91,0-10.927l9.095-9.095c3.017-3.017,7.91-3.017,10.927,0
		c3.017,3.017,3.017,7.91,0,10.927l-9.095,9.095C141.1,281.319,136.209,281.319,133.191,278.302z"/>
	<path style="fill:#3A484A;" d="M233.699,378.809c-3.017-3.017-3.017-7.91,0-10.927l9.095-9.095c3.017-3.017,7.91-3.017,10.927,0
		c3.017,3.017,3.017,7.91,0,10.927l-9.095,9.095C241.609,381.827,236.716,381.827,233.699,378.809z"/>
	<path style="fill:#3A484A;" d="M178.59,333.41c-6.411-6.411-9.75-15.112-9.161-23.872c0.285-4.258,3.969-7.477,8.227-7.192
		c4.258,0.286,7.477,3.969,7.191,8.227c-0.289,4.311,1.413,8.652,4.671,11.91c3.257,3.257,7.599,4.96,11.91,4.671
		c4.258-0.286,7.941,2.934,8.227,7.191c0.286,4.258-2.934,7.941-7.192,8.227C193.702,343.16,185.001,339.821,178.59,333.41z"/>
</g>
<g>
</g>
<g>
</g>
<g>
</g>
<g>
</g>
<g>
</g>
<g>
</g>
<g>
</g>
<g>
</g>
<g>
</g>
<g>
</g>
<g>
</g>
<g>
</g>
<g>
</g>
<g>
</g>
<g>
</g>
</svg>
