<?xml version="1.0" encoding="iso-8859-1"?>
<!-- Generator: Adobe Illustrator 19.0.0, SVG Export Plug-In . SVG Version: 6.00 Build 0)  -->
<svg version="1.1" id="Capa_1" xmlns="http://www.w3.org/2000/svg" xmlns:xlink="http://www.w3.org/1999/xlink" x="0px" y="0px"
	 viewBox="0 0 512 512" style="enable-background:new 0 0 512 512;" xml:space="preserve">
<g>
	<path style="fill:#EFEDEE;" d="M126.607,356.793c-8.844,10.25-18.448,23.404-26.78,39.451c-8.341,16.037-15.41,34.967-19.227,56.77
		c-3.099,17.76-4.032,37.419-1.723,58.986h47.73l37.405-51.3L126.607,356.793z"/>
	<path style="fill:#EFEDEE;" d="M431.4,453.014c-7.595-43.422-28.129-75.435-45.779-95.961l-0.066-0.26l-0.046,0.128
		c-0.004-0.005-0.008-0.01-0.012-0.014v0.05L348.15,460.701l37.346,51.22V512h47.628C435.432,490.433,434.498,470.774,431.4,453.014
		z"/>
</g>
<path style="fill:#C86D5C;" d="M415.185,63.141C372.573,22.424,316.041,0,256,0C195.96,0,139.427,22.424,96.814,63.141
	c-42.972,41.062-66.7,95.784-66.811,154.086v0.117c0.032,17.003,2.074,33.702,6.015,49.845
	c10.787,44.179,50.416,75.238,95.892,75.238h248.176c45.477,0,85.106-31.059,95.892-75.238c3.941-16.144,5.983-32.842,6.015-49.845
	v-0.117C481.885,158.925,458.158,104.203,415.185,63.141z"/>
<path style="fill:#AD4F3D;" d="M77.226,267.191c-3.941-16.144-5.983-32.842-6.015-49.846v-0.117
	c0.111-58.302,23.838-113.024,66.811-154.086c37.699-36.023,86.299-57.714,138.581-62.239C269.792,0.312,262.921,0,256,0
	C195.96,0,139.427,22.424,96.815,63.141c-42.972,41.062-66.7,95.784-66.811,154.086v0.117c0.032,17.003,2.074,33.701,6.015,49.846
	c10.787,44.179,50.416,75.238,95.892,75.238h41.207C127.643,342.428,88.014,311.37,77.226,267.191z"/>
<path style="fill:#506366;" d="M385.433,356.834c0.021,0.021,0.041,0.052,0.062,0.072V512H126.607V356.793L385.433,356.834z"/>
<g>
	<path style="fill:#D2D2D2;" d="M403.838,381.718c-5.997-9.522-12.27-17.749-18.219-24.666l-0.066-0.26l-0.046,0.128
		c-0.004-0.005-0.008-0.01-0.012-0.015v0.05l-17.787,49.41C380.461,399.367,392.559,391.129,403.838,381.718z"/>
	<path style="fill:#D2D2D2;" d="M126.607,356.793c-6.011,6.967-12.372,15.279-18.447,24.924c11.34,9.461,23.505,17.738,36.333,24.76
		L126.607,356.793z"/>
</g>
<path style="fill:#3A484A;" d="M126.607,356.793v38.8c37.678,25.414,82.465,39.105,129.393,39.105
	c46.971,0,91.795-13.718,129.495-39.176v-38.616c-0.021-0.021-0.041-0.052-0.062-0.071L126.607,356.793z"/>
<path style="fill:#FD6F71;" d="M156.014,356.793l1.713,15.985c0.339,3.201,2.627,20.243,13.933,41.923
	c14.837,28.441,38.917,52.368,69.626,69.206l14.795,8.105l14.795-8.105c30.709-16.837,54.79-40.764,69.626-69.206
	c11.307-21.68,13.585-38.722,13.933-41.923l1.703-15.944L156.014,356.793z M256.082,456.912
	c-62.033-33.992-67.749-87.408-67.749-87.408h135.498C323.831,369.505,318.105,422.92,256.082,456.912z"/>
<path style="fill:#EFEDEE;" d="M323.831,369.505c0,0-5.726,53.415-67.749,87.408c-62.033-33.992-67.749-87.408-67.749-87.408
	H323.831z"/>
<g>
	<path style="fill:#E3B098;" d="M444.377,185.391c-21.859,2.303-38.894,20.791-38.894,43.26c0,24.028,19.479,43.507,43.507,43.507
		s43.507-19.479,43.507-43.507c0-22.469-17.035-40.957-38.894-43.26H444.377z"/>
	<path style="fill:#E3B098;" d="M67.623,185.391c21.859,2.303,38.894,20.791,38.894,43.26c0,24.028-19.479,43.507-43.507,43.507
		s-43.507-19.479-43.507-43.507c0-22.469,17.035-40.957,38.894-43.26H67.623z"/>
</g>
<path style="fill:#D2D2D2;" d="M222.715,432.367c10.927,1.544,22.044,2.33,33.285,2.33c11.305,0,22.485-0.795,33.472-2.358
	c30.879-30.404,34.359-62.835,34.359-62.835H188.334C188.334,369.505,191.808,401.956,222.715,432.367z"/>
<path style="fill:#E36465;" d="M289.48,432.332c16.523-2.35,32.607-6.433,48.019-12.158c1.038-1.805,2.043-3.628,3.005-5.472
	c11.307-21.68,13.585-38.722,13.933-41.923l1.703-15.944l-97.101-0.021l-103.025-0.016l1.713,15.981
	c0.339,3.201,2.627,20.243,13.933,41.923c0.977,1.871,1.998,3.72,3.053,5.552c15.404,5.705,31.479,9.77,47.992,12.105
	c-30.897-30.409-34.372-62.853-34.372-62.853h135.498C323.831,369.505,320.351,401.93,289.48,432.332z"/>
<path style="fill:#FBC4AC;" d="M275.404,88.926c-10.279-11.536-28.366-11.536-38.645,0c-28.054,31.482-86.353,83.68-172.906,96.466
	l-0.134-0.164c-1.903,10.416-2.914,21.126-2.935,32.058C60.981,320.323,148.304,403.793,256,403.793
	c107.695,0,195.018-83.469,195.215-186.506c-0.021-10.876-1.023-21.531-2.907-31.895
	C361.756,172.605,303.458,120.408,275.404,88.926z"/>
<path style="fill:#3A484A;" d="M149.942,259.981c-4.267,0-7.726-3.459-7.726-7.726v-20.622c0-4.267,3.459-7.726,7.726-7.726
	c4.267,0,7.726,3.459,7.726,7.726v20.622C157.668,256.521,154.209,259.981,149.942,259.981z"/>
<path style="fill:#F98084;" d="M163.985,290.292h-28.087c-4.267,0-7.726-3.459-7.726-7.726c0-4.267,3.459-7.726,7.726-7.726h28.087
	c4.267,0,7.726,3.459,7.726,7.726C171.712,286.832,168.252,290.292,163.985,290.292z"/>
<path style="fill:#3A484A;" d="M362.058,259.981c-4.267,0-7.726-3.459-7.726-7.726v-20.622c0-4.267,3.459-7.726,7.726-7.726
	c4.267,0,7.726,3.459,7.726,7.726v20.622C369.785,256.521,366.325,259.981,362.058,259.981z"/>
<path style="fill:#F98084;" d="M376.103,290.292h-28.087c-4.267,0-7.726-3.459-7.726-7.726c0-4.267,3.459-7.726,7.726-7.726h28.087
	c4.267,0,7.726,3.459,7.726,7.726C383.829,286.832,380.37,290.292,376.103,290.292z"/>
<path style="fill:#3A484A;" d="M256,289.126c-9.623,0-18.657-4.022-24.787-11.034c-2.809-3.213-2.481-8.094,0.731-10.902
	c3.213-2.808,8.094-2.481,10.902,0.732c3.196,3.655,7.989,5.752,13.153,5.752s9.958-2.096,13.152-5.752
	c2.808-3.213,7.688-3.541,10.902-0.732c3.213,2.808,3.541,7.689,0.732,10.902C274.657,285.105,265.623,289.126,256,289.126z"/>
<g>
</g>
<g>
</g>
<g>
</g>
<g>
</g>
<g>
</g>
<g>
</g>
<g>
</g>
<g>
</g>
<g>
</g>
<g>
</g>
<g>
</g>
<g>
</g>
<g>
</g>
<g>
</g>
<g>
</g>
</svg>
