<?xml version="1.0" encoding="iso-8859-1"?>
<!-- Generator: Adobe Illustrator 19.0.0, SVG Export Plug-In . SVG Version: 6.00 Build 0)  -->
<svg version="1.1" id="Capa_1" xmlns="http://www.w3.org/2000/svg" xmlns:xlink="http://www.w3.org/1999/xlink" x="0px" y="0px"
	 viewBox="0 0 512 512" style="enable-background:new 0 0 512 512;" xml:space="preserve">
<path style="fill:#6EE3FF;" d="M500.293,161.975L350.025,11.706c-15.608-15.608-40.915-15.608-56.523,0L177.221,127.987
	l77.019,138.212l129.772,68.578l116.282-116.282C515.902,202.889,515.902,177.582,500.293,161.975z"/>
<path style="fill:#E36465;" d="M60.943,244.266l-49.235,49.235c-15.609,15.609-15.609,40.918,0,56.528l150.263,150.263
	c15.609,15.609,40.918,15.609,56.528,0l49.235-49.235L60.943,244.266z"/>
<path style="fill:#EFEDEE;" d="M11.706,293.502c-0.235,0.236-0.455,0.48-0.684,0.719c0.232,1.585,0.542,3.189,0.951,4.813
	c2.769,11.003,9.654,22.608,18.887,31.841l150.262,150.263c8.878,8.878,23.049,13.97,38.879,13.97c1.276,0,2.536-0.044,3.789-0.11
	l26.281-26.281c-0.765,0.368-1.486,0.86-2.12,1.495c-5.913,5.913-16.362,9.444-27.951,9.444c-11.59,0-22.039-3.53-27.952-9.444
	L41.788,319.949c-7.316-7.316-12.722-16.314-14.829-24.687c-2.187-8.686-0.959-16.052,4.232-21.243L11.706,293.502z"/>
<g>
	<path style="fill:#3A484A;" d="M293.93,115.602c-1.977,0-3.955-0.754-5.464-2.263c-3.017-3.017-3.017-7.91,0-10.927l10.736-10.736
		c3.018-3.017,7.91-3.017,10.927,0c3.017,3.017,3.017,7.91,0,10.927l-10.736,10.736C297.885,114.847,295.907,115.602,293.93,115.602
		z"/>
	<path style="fill:#3A484A;" d="M412.564,234.237c-1.977,0-3.955-0.754-5.464-2.263c-3.017-3.017-3.017-7.909,0-10.926
		l10.736-10.736c3.018-3.017,7.91-3.017,10.927,0c3.017,3.017,3.017,7.909,0,10.926l-10.736,10.736
		C416.519,233.483,414.541,234.237,412.564,234.237z"/>
	<path style="fill:#3A484A;" d="M366.906,188.871c-9.168,0-18.119-3.751-24.852-10.484c-7.282-7.282-11.077-17.16-10.409-27.099
		c0.286-4.258,4.014-7.474,8.227-7.191c4.258,0.286,7.477,3.97,7.191,8.227c-0.369,5.49,1.787,11.006,5.916,15.136
		c4.13,4.13,9.646,6.286,15.137,5.917c4.235-0.283,7.94,2.934,8.226,7.192c0.285,4.258-2.935,7.941-7.192,8.227
		C368.404,188.846,367.654,188.871,366.906,188.871z"/>
</g>
<path style="fill:#FD6F71;" d="M384.013,334.778L267.731,451.06c-15.608,15.608-40.915,15.608-56.523,0L60.94,300.792
	c-15.608-15.608-15.608-40.915,0-56.523l116.282-116.282L384.013,334.778z"/>
<g>
</g>
<g>
</g>
<g>
</g>
<g>
</g>
<g>
</g>
<g>
</g>
<g>
</g>
<g>
</g>
<g>
</g>
<g>
</g>
<g>
</g>
<g>
</g>
<g>
</g>
<g>
</g>
<g>
</g>
</svg>
