<?xml version="1.0" encoding="iso-8859-1"?>
<!-- Generator: Adobe Illustrator 19.0.0, SVG Export Plug-In . SVG Version: 6.00 Build 0)  -->
<svg version="1.1" id="Capa_1" xmlns="http://www.w3.org/2000/svg" xmlns:xlink="http://www.w3.org/1999/xlink" x="0px" y="0px"
	 viewBox="0 0 512.001 512.001" style="enable-background:new 0 0 512.001 512.001;" xml:space="preserve">
<path style="fill:#C86D5C;" d="M224.133,346.536L51.44,498.689c-12.258,10.801-30.812,10.225-42.371-1.335
	s-12.137-30.113-1.335-42.371l152.388-172.958L224.133,346.536z"/>
<path style="fill:#AD4F3D;" d="M10.836,498.987c3.04,2.596,6.586,4.602,10.38,5.86c0.562,0.186,1.128,0.362,1.699,0.515
	c-2.606-9.715-0.419-20.477,6.672-28.525l152.308-172.869l-21.774-21.944L7.734,454.982c-6.413,7.278-8.815,16.775-7.29,25.711
	C1.655,487.778,5.369,494.322,10.836,498.987z"/>
<path style="fill:#D2D2D2;" d="M345.626,239.501L224.133,346.537c-11.841-8.488-23.196-18.098-33.914-28.816
	c-11.257-11.257-21.292-23.218-30.098-35.696l106.8-121.228L345.626,239.501z"/>
<path style="fill:#B8B8B8;" d="M181.975,303.877l106.8-121.227l-21.853-21.853l-53.399,60.614l-53.4,60.614l0,0
	c5.944,8.423,12.462,16.603,19.524,24.498L181.975,303.877z"/>
<path style="fill:#FF98C9;" d="M461.856,182.695c7.684-14.723,15.08-33.117,20.306-55.456c9.026-38.564,19.821-66.909,27.838-84.818
	c5.848-13.084-1.646-28.286-15.603-31.486c-35.84-8.23-102.62-13.267-173.057,34.157v31.074l110.246,110.246L461.856,182.695z"/>
<path style="fill:#EB6DA8;" d="M351.756,27.581c-10.545,5.093-20.716,10.979-30.417,17.511v31.074l3.961,3.961
	c5.979-4.778,11.948-9.178,17.892-13.182c67.724-45.597,132.054-42.694,168.766-35.087c-0.134-2.428-0.656-4.802-1.531-7.048
	c-1.657-4.666-5.426-8.777-9.696-11.299c-5.125-3.028-11.44-3.761-17.209-4.765C438.923,0.987,392.472,7.916,351.756,27.581z"/>
<path style="fill:#506366;" d="M426.788,229.64c-41.279,41.279-108.34,41.059-149.338-0.668
	c-40.838-41.567-39.223-108.658,2.26-149.581c13.881-13.699,27.823-25.001,41.628-34.301l6.129,1.563
	c13.145,3.345,23.416,13.616,26.761,26.761c1.676,6.577,5.075,12.432,9.709,17.067c4.627,4.627,10.483,8.025,17.059,9.701
	c6.576,1.676,12.432,5.075,17.059,9.701c4.627,4.627,8.025,10.483,9.701,17.059c1.676,6.576,5.075,12.432,9.701,17.059
	c4.635,4.635,10.49,8.032,17.067,9.709c6.577,1.677,12.432,5.075,17.067,9.709c4.627,4.627,8.025,10.483,9.701,17.059l0.561,2.215
	C445.031,214.978,426.788,229.64,426.788,229.64z"/>
<path style="fill:#3A484A;" d="M289.918,69.755c-3.475,3.135-6.878,6.35-10.208,9.636c-41.483,40.923-43.1,108.013-2.248,149.594
	c2.835,2.883,5.836,5.587,8.973,8.136c0.137,0.111,0.274,0.223,0.412,0.333c1.006,0.806,2.021,1.594,3.049,2.356
	c-30.87-41.668-26.324-101.09,11.667-138.567c13.881-13.699,27.823-25.001,41.629-34.301c2.146-1.445,4.289-2.839,6.427-4.188
	c-4.987-7.879-12.84-13.733-22.152-16.103l-6.129-1.563c-3.178,2.141-6.364,4.401-9.555,6.759
	C304.206,57.451,296.916,63.441,289.918,69.755z"/>
<g>
	<path style="fill:#EFEDEE;" d="M293.887,125.075c-3.017-3.017-3.017-7.91,0-10.927l8.052-8.052c3.017-3.017,7.91-3.017,10.927,0
		s3.017,7.91,0,10.927l-8.052,8.052C301.796,128.092,296.904,128.092,293.887,125.075z"/>
	<path style="fill:#EFEDEE;" d="M382.867,214.057c-3.017-3.017-3.017-7.91,0-10.927l8.052-8.052c3.017-3.017,7.91-3.017,10.927,0
		c3.017,3.017,3.017,7.91,0,10.927l-8.052,8.052C390.777,217.073,385.885,217.073,382.867,214.057z"/>
	<path style="fill:#EFEDEE;" d="M334.079,173.864c-5.857-5.857-8.907-13.81-8.368-21.82c0.286-4.258,3.969-7.477,8.227-7.191
		c4.258,0.285,7.477,3.969,7.192,8.227c-0.24,3.561,1.173,7.155,3.877,9.858s6.296,4.117,9.858,3.877
		c4.258-0.285,7.941,2.935,8.227,7.192c0.286,4.258-2.934,7.941-7.191,8.227C347.889,182.77,339.936,179.72,334.079,173.864z"/>
</g>
<g>
</g>
<g>
</g>
<g>
</g>
<g>
</g>
<g>
</g>
<g>
</g>
<g>
</g>
<g>
</g>
<g>
</g>
<g>
</g>
<g>
</g>
<g>
</g>
<g>
</g>
<g>
</g>
<g>
</g>
</svg>
