<?xml version="1.0" encoding="iso-8859-1"?>
<!-- Generator: Adobe Illustrator 19.0.0, SVG Export Plug-In . SVG Version: 6.00 Build 0)  -->
<svg version="1.1" id="Capa_1" xmlns="http://www.w3.org/2000/svg" xmlns:xlink="http://www.w3.org/1999/xlink" x="0px" y="0px"
	 viewBox="0 0 512 512" style="enable-background:new 0 0 512 512;" xml:space="preserve">
<path style="fill:#EFEDEE;" d="M415.709,0H70.277C55.72,0,43.92,11.801,43.92,26.357v20.186h14.312
	c12.853,0,23.272,10.419,23.272,23.272v0.01c0,12.853-10.419,23.272-23.272,23.272H43.919v46.544h14.313
	c12.853,0,23.272,10.419,23.272,23.272l0,0c0,12.853-10.419,23.272-23.272,23.272H43.919v46.544h14.313
	c12.853,0,23.272,10.419,23.272,23.272l0,0c0,12.853-10.419,23.272-23.272,23.272H43.919v46.544h14.313
	c12.853,0,23.272,10.419,23.272,23.272l0,0c0,12.853-10.419,23.272-23.272,23.272H43.919v46.554h14.313
	c12.853,0,23.272,10.419,23.272,23.272l0,0c0,12.853-10.419,23.272-23.272,23.272H43.919v20.186
	c0,14.556,11.801,26.357,26.357,26.357h345.432c28.922,0,52.368-23.446,52.368-52.368V52.368C468.077,23.446,444.631,0,415.709,0z"
	/>
<path style="fill:#D2D2D2;" d="M415.709,0H364.2c28.922,0,52.368,23.446,52.368,52.367v407.265
	c0,28.922-23.446,52.368-52.368,52.368h51.509c28.922,0,52.368-23.446,52.368-52.368V52.368C468.077,23.446,444.631,0,415.709,0z"/>
<g>
	<path style="fill:#FD6F71;" d="M468.077,62.089H80.184c0.851,2.418,1.319,5.017,1.319,7.726v0.01c0,2.705-0.467,5.301-1.316,7.716
		h387.889V62.089H468.077z"/>
	<path style="fill:#FD6F71;" d="M468.077,155.186H80.184c0.851,2.418,1.319,5.017,1.319,7.726l0,0c0,2.709-0.468,5.309-1.319,7.726
		h387.892v-15.453H468.077z"/>
	<path style="fill:#FD6F71;" d="M468.077,248.274H80.184c0.851,2.419,1.319,5.017,1.319,7.726l0,0c0,2.709-0.468,5.307-1.319,7.726
		h387.892v-15.453H468.077z"/>
	<path style="fill:#FD6F71;" d="M468.077,341.361H80.184c0.851,2.418,1.319,5.017,1.319,7.726l0,0c0,2.709-0.468,5.309-1.319,7.726
		h387.892v-15.453H468.077z"/>
	<path style="fill:#FD6F71;" d="M80.184,449.911h387.892v-15.453H80.184c0.851,2.418,1.319,5.017,1.319,7.726l0,0
		C81.504,444.894,81.036,447.493,80.184,449.911z"/>
</g>
<g>
	<rect x="416.572" y="62.089" style="fill:#E36465;" width="51.509" height="15.453"/>
	<rect x="416.572" y="155.186" style="fill:#E36465;" width="51.509" height="15.453"/>
	<rect x="416.572" y="248.274" style="fill:#E36465;" width="51.509" height="15.453"/>
	<rect x="416.572" y="341.361" style="fill:#E36465;" width="51.509" height="15.453"/>
	<rect x="416.572" y="434.458" style="fill:#E36465;" width="51.509" height="15.453"/>
</g>
<g>
</g>
<g>
</g>
<g>
</g>
<g>
</g>
<g>
</g>
<g>
</g>
<g>
</g>
<g>
</g>
<g>
</g>
<g>
</g>
<g>
</g>
<g>
</g>
<g>
</g>
<g>
</g>
<g>
</g>
</svg>
