<?xml version="1.0" encoding="iso-8859-1"?>
<!-- Generator: Adobe Illustrator 19.0.0, SVG Export Plug-In . SVG Version: 6.00 Build 0)  -->
<svg version="1.1" id="Capa_1" xmlns="http://www.w3.org/2000/svg" xmlns:xlink="http://www.w3.org/1999/xlink" x="0px" y="0px"
	 viewBox="0 0 512 512" style="enable-background:new 0 0 512 512;" xml:space="preserve">
<path style="fill:#FADC60;" d="M422.512,58.862l-73.25-27.207l-304.301,304.3c-18.061,18.061-18.054,47.34,0,65.395l35.062,35.062
	c18.054,18.054,47.334,18.061,65.395,0l304.301-304.301L422.512,58.862z"/>
<path style="fill:#506366;" d="M500.841,80.99l-51.122,51.122L349.262,31.655l7.842-7.841c18.368-18.368,44.941-25.91,70.215-19.931
	l55.342,13.08c6.879,1.633,13.178,5.142,18.173,10.136C515.721,41.987,515.721,66.111,500.841,80.99z"/>
<g>
	<polygon style="fill:#999999;" points="226.816,254.557 209.285,237.027 167.428,278.883 149.653,331.721 173.735,342.702 
		215.592,300.845 	"/>
	<polygon style="fill:#999999;" points="149.653,331.721 125.571,320.74 83.715,362.598 65.939,415.436 90.02,426.415 
		131.878,384.559 	"/>
	<polygon style="fill:#999999;" points="65.939,415.436 41.857,404.455 0,446.312 6.307,510.13 48.163,468.273 	"/>
</g>
<g>
	<polygon style="fill:#B8B8B8;" points="173.735,342.702 131.878,384.559 125.571,320.74 167.428,278.883 	"/>
	<polygon style="fill:#B8B8B8;" points="90.02,426.415 48.163,468.273 41.857,404.455 83.715,362.598 	"/>
</g>
<path style="fill:#3A484A;" d="M383.732,132.708L348.675,97.64c-7.325-7.325-19.203-7.325-26.517,0l-22.798,22.798l11.754,45.936
	l49.82,15.638l22.798-22.798C391.057,151.9,391.057,140.022,383.732,132.708z"/>
<polygon style="fill:#B8B8B8;" points="250.808,195.504 209.285,237.027 215.592,300.845 285.87,230.567 287.936,195.504 "/>
<g>
	<path style="fill:#506366;" d="M360.934,182.012l-48.552,48.552c-7.314,7.325-19.192,7.325-26.517,0l-35.057-35.057
		c-7.325-7.325-7.325-19.192,0-26.517l48.552-48.552L360.934,182.012z"/>
	<circle style="fill:#506366;" cx="241.093" cy="240.289" r="9.176"/>
</g>
<rect x="317.239" y="77.239" transform="matrix(-0.7071 -0.7071 0.7071 -0.7071 596.9956 433.4783)" style="fill:#E6CB59;" width="142.071" height="31.717"/>
<g>
</g>
<g>
</g>
<g>
</g>
<g>
</g>
<g>
</g>
<g>
</g>
<g>
</g>
<g>
</g>
<g>
</g>
<g>
</g>
<g>
</g>
<g>
</g>
<g>
</g>
<g>
</g>
<g>
</g>
</svg>
