<?xml version="1.0" encoding="iso-8859-1"?>
<!-- Generator: Adobe Illustrator 19.0.0, SVG Export Plug-In . SVG Version: 6.00 Build 0)  -->
<svg version="1.1" id="Capa_1" xmlns="http://www.w3.org/2000/svg" xmlns:xlink="http://www.w3.org/1999/xlink" x="0px" y="0px"
	 viewBox="0 0 512 512" style="enable-background:new 0 0 512 512;" xml:space="preserve">
<g>
	<path style="fill:#506366;" d="M122.102,446.445v51.699c0,7.652,6.204,13.856,13.855,13.856h40.84
		c7.652,0,13.855-6.204,13.855-13.856v-51.699H122.102z"/>
	<path style="fill:#506366;" d="M389.898,446.445v51.699c0,7.652-6.204,13.856-13.855,13.856h-40.84
		c-7.652,0-13.855-6.204-13.855-13.856v-51.699H389.898z"/>
</g>
<path style="fill:#FD6F71;" d="M389.898,0H122.102c-17.283,0-31.294,14.01-31.294,31.294v413.711
	c0,17.283,14.01,31.294,31.294,31.294h267.796c17.283,0,31.294-14.01,31.294-31.294V31.295C421.193,14.011,407.181,0,389.898,0z"/>
<path style="fill:#E36465;" d="M122.102,476.3h69.022c-17.283,0-31.294-14.01-31.294-31.294V31.294
	c0-17.279,14.005-31.289,31.285-31.294h-69.012C104.82,0,90.809,14.011,90.809,31.294v413.711c0,2.7,0.342,5.321,0.985,7.821
	c0.129,0.5,0.269,0.995,0.421,1.486c1.219,3.92,3.188,7.509,5.739,10.601c0.319,0.386,0.647,0.764,0.984,1.135
	C104.662,472.345,112.92,476.3,122.102,476.3z"/>
<rect x="135.592" y="44.782" style="fill:#B8B8B8;" width="240.825" height="386.74"/>
<g>
	<rect x="135.592" y="44.782" style="fill:#999999;" width="24.241" height="386.74"/>
	<path style="fill:#999999;" d="M314.713,92.482H197.287c-4.268,0-7.726-3.459-7.726-7.726s3.458-7.726,7.726-7.726h117.425
		c4.268,0,7.726,3.459,7.726,7.726S318.98,92.482,314.713,92.482z"/>
	<path style="fill:#999999;" d="M314.713,122.337H197.287c-4.268,0-7.726-3.459-7.726-7.726c0-4.267,3.458-7.726,7.726-7.726
		h117.425c4.268,0,7.726,3.459,7.726,7.726C322.438,118.878,318.98,122.337,314.713,122.337z"/>
	<path style="fill:#999999;" d="M314.713,152.191H197.287c-4.268,0-7.726-3.459-7.726-7.726c0-4.267,3.458-7.726,7.726-7.726
		h117.425c4.268,0,7.726,3.459,7.726,7.726C322.438,148.731,318.98,152.191,314.713,152.191z"/>
	<circle style="fill:#999999;" cx="318.367" cy="243.978" r="30.184"/>
</g>
<circle style="fill:#B8B8B8;" cx="318.367" cy="243.978" r="9.786"/>
<g>
</g>
<g>
</g>
<g>
</g>
<g>
</g>
<g>
</g>
<g>
</g>
<g>
</g>
<g>
</g>
<g>
</g>
<g>
</g>
<g>
</g>
<g>
</g>
<g>
</g>
<g>
</g>
<g>
</g>
</svg>
