<?xml version="1.0" encoding="iso-8859-1"?>
<!-- Generator: Adobe Illustrator 19.0.0, SVG Export Plug-In . SVG Version: 6.00 Build 0)  -->
<svg version="1.1" id="Capa_1" xmlns="http://www.w3.org/2000/svg" xmlns:xlink="http://www.w3.org/1999/xlink" x="0px" y="0px"
	 viewBox="0 0 512 512" style="enable-background:new 0 0 512 512;" xml:space="preserve">
<path style="fill:#3A484A;" d="M342.785,124.147c-1.978,0-3.955-0.754-5.464-2.263l-84.425-84.426l-84.426,84.426
	c-3.019,3.018-7.911,3.016-10.927,0c-3.017-3.017-3.017-7.909,0-10.926l89.891-89.889c1.449-1.448,3.414-2.263,5.464-2.263
	s4.014,0.814,5.464,2.263l89.889,89.889c3.017,3.017,3.017,7.91,0,10.926C346.739,123.393,344.761,124.147,342.785,124.147z"/>
<rect x="38.01" y="119.202" style="fill:#EFEDEE;" width="434.901" height="344.709"/>
<g>
	<polygon style="fill:#C86D5C;" points="512,85.192 0,85.192 23.08,163.867 57.427,146.269 454.573,146.269 482.708,163.867 
		503.148,103.364 	"/>
	<polygon style="fill:#C86D5C;" points="501.731,486.06 477.075,430.948 448.361,444.405 57.427,444.405 28.714,430.948 0,505.483 
		512,505.483 	"/>
</g>
<polygon style="fill:#E6CB59;" points="385.338,288.774 423.253,403.603 390.361,390.418 371.787,420.596 333.872,305.766 "/>
<polygon style="fill:#FADC60;" points="304.715,288.774 266.8,403.603 299.693,390.418 318.267,420.596 356.181,305.766 "/>
<path style="fill:#FD6F71;" d="M410.462,234.321c-3.94-4.073-5.781-9.737-4.987-15.35l0,0c1.388-9.814-5.257-18.959-15.019-20.673
	l0,0c-5.583-0.98-10.401-4.48-13.058-9.487l0,0c-4.645-8.756-15.397-12.249-24.302-7.896l0,0c-5.092,2.489-11.048,2.489-16.14,0l0,0
	c-8.905-4.353-19.657-0.859-24.302,7.896l0,0c-2.657,5.007-7.475,8.507-13.058,9.487l0,0c-9.762,1.712-16.408,10.858-15.019,20.673
	l0,0c0.793,5.611-1.047,11.276-4.987,15.35c-6.891,7.124-6.891,18.429,0,25.553c3.94,4.073,5.781,9.737,4.987,15.35
	c-1.388,9.814,5.257,18.959,15.019,20.673l0,0c5.583,0.98,10.401,4.48,13.058,9.487l0,0c4.645,8.755,15.397,12.249,24.302,7.896l0,0
	c5.092-2.489,11.048-2.489,16.14,0l0,0c8.904,4.353,19.657,0.859,24.302-7.896l0,0c2.657-5.007,7.475-8.507,13.058-9.487l0,0
	c9.762-1.712,16.408-10.859,15.019-20.673c-0.793-5.612,1.047-11.276,4.987-15.35C417.354,252.75,417.354,241.444,410.462,234.321z"
	/>
<g>
	<path style="fill:#3A484A;" d="M252.895,208.86H100.203c-4.268,0-7.726-3.459-7.726-7.726s3.458-7.726,7.726-7.726h152.692
		c4.268,0,7.726,3.459,7.726,7.726S257.162,208.86,252.895,208.86z"/>
	<path style="fill:#3A484A;" d="M211.486,248.715H100.203c-4.268,0-7.726-3.459-7.726-7.726c0-4.267,3.458-7.726,7.726-7.726
		h111.283c4.268,0,7.726,3.459,7.726,7.726C219.212,245.256,215.754,248.715,211.486,248.715z"/>
	<path style="fill:#3A484A;" d="M211.486,288.571H100.203c-4.268,0-7.726-3.459-7.726-7.726c0-4.267,3.458-7.726,7.726-7.726
		h111.283c4.268,0,7.726,3.459,7.726,7.726C219.212,285.111,215.754,288.571,211.486,288.571z"/>
	<path style="fill:#3A484A;" d="M211.486,391.66H100.203c-4.268,0-7.726-3.459-7.726-7.726c0-4.267,3.458-7.726,7.726-7.726h111.283
		c4.268,0,7.726,3.459,7.726,7.726C219.212,388.201,215.754,391.66,211.486,391.66z"/>
</g>
<g>
	<polygon style="fill:#AD4F3D;" points="57.427,444.405 0,505.483 0,85.192 57.427,146.269 	"/>
	<polygon style="fill:#AD4F3D;" points="454.573,444.405 512,505.483 512,85.192 454.573,146.269 	"/>
</g>
<circle style="fill:#FADC60;" cx="252.899" cy="26.531" r="20.013"/>
<path style="fill:#E6CB59;" d="M263.196,36.242c-11.053,0-20.013-8.961-20.013-20.013c0-2.857,0.608-5.568,1.686-8.026
	c-7.055,3.095-11.988,10.131-11.988,18.328c0,11.053,8.961,20.013,20.013,20.013c8.197,0,15.233-4.934,18.328-11.988
	C268.764,35.634,266.052,36.242,263.196,36.242z"/>
<rect x="57.427" y="146.265" style="fill:#D2D2D2;" width="397.145" height="30.143"/>
<g>
</g>
<g>
</g>
<g>
</g>
<g>
</g>
<g>
</g>
<g>
</g>
<g>
</g>
<g>
</g>
<g>
</g>
<g>
</g>
<g>
</g>
<g>
</g>
<g>
</g>
<g>
</g>
<g>
</g>
</svg>
