<?xml version="1.0" encoding="iso-8859-1"?>
<!-- Generator: Adobe Illustrator 19.0.0, SVG Export Plug-In . SVG Version: 6.00 Build 0)  -->
<svg version="1.1" id="Capa_1" xmlns="http://www.w3.org/2000/svg" xmlns:xlink="http://www.w3.org/1999/xlink" x="0px" y="0px"
	 viewBox="0 0 512 512" style="enable-background:new 0 0 512 512;" xml:space="preserve">
<g>
	<path style="fill:#FADC60;" d="M472.33,199.126c-8.28,0-15,6.72-15,15v125.24l15,16.895l15-16.895V214.125
		C487.33,205.845,480.62,199.126,472.33,199.126z"/>
	<path style="fill:#FADC60;" d="M496.475,396.709c-3.292-14.182-9.146-23.554-9.146-23.554l-15-16.895l-15,16.895
		c0,0-5.765,9.229-9.07,23.231c-2.277,9.642,4.952,18.909,14.859,18.909h18.425C491.317,415.296,498.686,406.229,496.475,396.709z"
		/>
	<path style="fill:#FADC60;" d="M424.08,333.875v50c0,42.25-75.25,76.5-168.08,76.5s-168.08-34.25-168.08-76.5v-50H424.08z"/>
</g>
<path style="fill:#506366;" d="M424.08,200.885v132.99c0,42.25-75.25,76.5-168.08,76.5s-168.08-34.25-168.08-76.5v-132.99H424.08z"
	/>
<path style="fill:#E6CB59;" d="M472.33,199.126c-8.28,0-15,6.72-15,15v62.819l30-15.292v-47.527
	C487.33,205.845,480.62,199.126,472.33,199.126z"/>
<path style="fill:#3A484A;" d="M512,214.389L262.415,341.612c-4.03,2.054-8.8,2.054-12.83,0L0,214.389v-34h512V214.389z"/>
<path style="fill:#506366;" d="M512,180.389L262.415,53.165c-4.03-2.054-8.8-2.054-12.83,0L0,180.389l249.585,127.223
	c4.03,2.054,8.8,2.054,12.83,0L512,180.389z"/>
<g>
	<path style="fill:#3A484A;" d="M169.846,376.838c-4.267,0-7.726-3.459-7.726-7.726v-15.593c0-4.267,3.459-7.726,7.726-7.726
		c4.267,0,7.726,3.459,7.726,7.726v15.593C177.572,373.379,174.113,376.838,169.846,376.838z"/>
	<path style="fill:#3A484A;" d="M342.154,376.838c-4.267,0-7.726-3.459-7.726-7.726v-15.593c0-4.267,3.459-7.726,7.726-7.726
		c4.267,0,7.726,3.459,7.726,7.726v15.593C349.88,373.379,346.421,376.838,342.154,376.838z"/>
	<path style="fill:#3A484A;" d="M256,385.161c-10.517,0-20.388-4.392-27.081-12.05c-2.808-3.213-2.481-8.093,0.732-10.902
		c3.212-2.808,8.093-2.481,10.902,0.732c3.758,4.3,9.389,6.766,15.447,6.766s11.687-2.466,15.447-6.766
		c2.808-3.213,7.69-3.542,10.902-0.732c3.213,2.808,3.542,7.689,0.732,10.902C276.388,380.769,266.517,385.161,256,385.161z"/>
</g>
<rect x="457.328" y="339.362" style="fill:#E6CB59;" width="29.999" height="33.79"/>
<g>
</g>
<g>
</g>
<g>
</g>
<g>
</g>
<g>
</g>
<g>
</g>
<g>
</g>
<g>
</g>
<g>
</g>
<g>
</g>
<g>
</g>
<g>
</g>
<g>
</g>
<g>
</g>
<g>
</g>
</svg>
