<?xml version="1.0" encoding="iso-8859-1"?>
<!-- Generator: Adobe Illustrator 19.0.0, SVG Export Plug-In . SVG Version: 6.00 Build 0)  -->
<svg version="1.1" id="Capa_1" xmlns="http://www.w3.org/2000/svg" xmlns:xlink="http://www.w3.org/1999/xlink" x="0px" y="0px"
	 viewBox="0 0 512 512" style="enable-background:new 0 0 512 512;" xml:space="preserve">
<circle style="fill:#FADC60;" cx="119.723" cy="212.32" r="33.038"/>
<path style="fill:#E6CB59;" d="M112.847,235.683c-12.901-12.901-12.901-33.818,0-46.72c4.336-4.336,9.58-7.208,15.118-8.63
	c-10.939-2.807-23.036,0.065-31.601,8.63c-12.901,12.901-12.901,33.818,0,46.72c8.565,8.565,20.661,11.437,31.601,8.629
	C122.426,242.891,117.183,240.019,112.847,235.683z"/>
<g>
	<path style="fill:#B8B8B8;" d="M229.403,284.457c3.23-18.461-1.904-36.538-1.904-36.538l-54.629-93.192l-88.742-50.18
		c0,0-18.078-5.133-36.538-1.904c-13.442,2.351-18.582,18.964-8.934,28.612l162.135,162.135
		C210.44,303.04,227.051,297.898,229.403,284.457z"/>
	<circle style="fill:#B8B8B8;" cx="299.181" cy="32.861" r="32.861"/>
	<path style="fill:#B8B8B8;" d="M445.087,267.04L272.804,94.758l-33.371,33.371L399.66,288.357l-95.411,189.736h52.825
		l92.409-183.765C454.054,285.237,452.283,274.236,445.087,267.04z"/>
</g>
<polygon style="fill:#999999;" points="272.804,94.758 239.433,128.129 302.051,190.747 328.517,150.471 "/>
<path style="fill:#EFEDEE;" d="M308.571,124.549c19.006-28.922,15.086-67.216-9.386-91.688l0,0
	c-24.472-24.472-62.766-28.392-91.688-9.386L84.127,104.547l143.372,143.372L308.571,124.549z"/>
<path style="fill:#999999;" d="M399.659,288.357l-27.037,53.765c11.395,10.888,25.95,18.48,42.142,21.245l34.718-69.04
	c4.572-9.091,2.8-20.092-4.396-27.287L399.659,288.357z"/>
<circle style="fill:#EFEDEE;" cx="428.406" cy="283.722" r="49.912"/>
<circle style="fill:#B8B8B8;" cx="428.406" cy="283.722" r="15.988"/>
<path style="fill:#D2D2D2;" d="M381.164,455.021h-163.96c-31.469,0-56.979,25.51-56.979,56.979l0,0h277.919l0,0
	C438.145,480.531,412.633,455.021,381.164,455.021z"/>
<g>
</g>
<g>
</g>
<g>
</g>
<g>
</g>
<g>
</g>
<g>
</g>
<g>
</g>
<g>
</g>
<g>
</g>
<g>
</g>
<g>
</g>
<g>
</g>
<g>
</g>
<g>
</g>
<g>
</g>
</svg>
