<?xml version="1.0" encoding="iso-8859-1"?>
<!-- Generator: Adobe Illustrator 19.0.0, SVG Export Plug-In . SVG Version: 6.00 Build 0)  -->
<svg version="1.1" id="Capa_1" xmlns="http://www.w3.org/2000/svg" xmlns:xlink="http://www.w3.org/1999/xlink" x="0px" y="0px"
	 viewBox="0 0 512 512" style="enable-background:new 0 0 512 512;" xml:space="preserve">
<path style="fill:#FD6F71;" d="M275.157,12.311C273.987,5.211,267.85,0,260.653,0h-9.307c-7.197,0-13.335,5.211-14.504,12.311
	l-14.377,87.292h67.069L275.157,12.311z"/>
<path style="fill:#E36465;" d="M204.329,158.929c0,0-6.381-71.375,51.671-71.375s51.671,71.375,51.671,71.375l-51.671,22.84
	L204.329,158.929z"/>
<path style="fill:#FD6F71;" d="M307.67,158.929H204.329c-15.664,0-28.363,12.698-28.363,28.363v11.091l80.034,27.164l80.034-27.164
	v-11.091C336.033,171.628,323.334,158.929,307.67,158.929z"/>
<path style="fill:#EFEDEE;" d="M353.91,198.383H158.089c-23.714,0-42.937,19.223-42.937,42.937v227.743
	c0,23.714,19.223,42.937,42.937,42.937h195.822c23.714,0,42.937-19.223,42.937-42.937V241.32
	C396.847,217.606,377.624,198.383,353.91,198.383z"/>
<path style="fill:#D2D2D2;" d="M141.937,469.063V241.32c0-23.714,19.223-42.937,42.937-42.937h-26.785
	c-23.714,0-42.937,19.223-42.937,42.937v227.743c0,23.714,19.223,42.937,42.937,42.937h26.785
	C161.16,512,141.937,492.777,141.937,469.063z"/>
<rect x="153.218" y="258.215" style="fill:#FD6F71;" width="205.562" height="193.962"/>
<g>
	<path style="fill:#3A484A;" d="M185.905,365.875c-4.267,0-7.726-3.459-7.726-7.726v-12.686c0-4.267,3.459-7.726,7.726-7.726
		s7.726,3.459,7.726,7.726v12.686C193.631,362.416,190.172,365.875,185.905,365.875z"/>
	<path style="fill:#3A484A;" d="M326.094,365.875c-4.267,0-7.726-3.459-7.726-7.726v-12.686c0-4.267,3.459-7.726,7.726-7.726
		s7.726,3.459,7.726,7.726v12.686C333.82,362.416,330.361,365.875,326.094,365.875z"/>
	<path style="fill:#3A484A;" d="M255.999,372.646c-8.972,0-17.398-3.753-23.117-10.296c-2.808-3.213-2.481-8.093,0.731-10.902
		c3.212-2.809,8.093-2.481,10.902,0.731c2.786,3.185,6.971,5.013,11.483,5.013c4.512,0,8.698-1.827,11.482-5.013
		c2.808-3.213,7.689-3.541,10.902-0.732c3.213,2.808,3.541,7.689,0.732,10.902C273.397,368.894,264.971,372.646,255.999,372.646z"/>
</g>
<g>
</g>
<g>
</g>
<g>
</g>
<g>
</g>
<g>
</g>
<g>
</g>
<g>
</g>
<g>
</g>
<g>
</g>
<g>
</g>
<g>
</g>
<g>
</g>
<g>
</g>
<g>
</g>
<g>
</g>
</svg>
