<?xml version="1.0" encoding="iso-8859-1"?>
<!-- Generator: Adobe Illustrator 19.0.0, SVG Export Plug-In . SVG Version: 6.00 Build 0)  -->
<svg version="1.1" id="Capa_1" xmlns="http://www.w3.org/2000/svg" xmlns:xlink="http://www.w3.org/1999/xlink" x="0px" y="0px"
	 viewBox="0 0 512 512" style="enable-background:new 0 0 512 512;" xml:space="preserve">
<path style="fill:#C86D5C;" d="M194.462,369.396C151.21,396.306,109.086,470.18,78.427,498.985
	c-43.036,40.436-105.848-22.376-65.412-65.412c28.805-30.658,102.679-72.782,129.589-116.034L194.462,369.396z"/>
<path style="fill:#AD4F3D;" d="M34.868,455.427c28.805-30.658,102.679-72.783,129.589-116.034l-21.853-21.853
	C115.694,360.79,41.82,402.915,13.015,433.573c-24.893,26.494-10.651,60.473,14.013,73.253
	C19.048,491.427,19.326,471.968,34.868,455.427z"/>
<ellipse transform="matrix(0.7071 -0.7071 0.7071 0.7071 -168.3088 230.2045)" style="fill:#FADC60;" cx="193.727" cy="318.269" rx="48.265" ry="54.369"/>
<path style="fill:#E6CB59;" d="M177.135,301.68c15.477-15.477,40.151-16.931,60.24-5.202c-2.554-4.375-5.723-8.536-9.52-12.333
	c-21.233-21.233-53.725-23.166-72.574-4.317c-18.848,18.848-16.916,51.341,4.317,72.574c3.797,3.797,7.959,6.966,12.333,9.52
	C160.204,341.832,161.658,317.158,177.135,301.68z"/>
<circle style="fill:#506366;" cx="319.727" cy="192.273" r="192.273"/>
<circle style="fill:#6EE3FF;" cx="319.727" cy="192.273" r="143.102"/>
<path style="fill:#42C3E2;" d="M240.397,112.935c52.192-52.192,134.665-55.633,190.86-10.338
	c-3.205-3.975-6.646-7.823-10.338-11.515c-55.884-55.884-146.491-55.884-202.375,0s-55.884,146.491,0,202.375
	c3.692,3.692,7.54,7.133,11.515,10.338C184.763,247.601,188.205,165.127,240.397,112.935z"/>
<g>
	<path style="fill:#3A484A;" d="M254.02,142.362c-3.017-3.017-3.017-7.91,0-10.927l10.463-10.463c3.017-3.017,7.909-3.017,10.927,0
		c3.017,3.017,3.017,7.91,0,10.927l-10.463,10.463C261.928,145.379,257.037,145.38,254.02,142.362z"/>
	<path style="fill:#3A484A;" d="M369.637,257.98c-3.017-3.017-3.017-7.91,0-10.927L380.1,236.59c3.017-3.017,7.909-3.017,10.927,0
		c3.017,3.017,3.017,7.91,0,10.927l-10.463,10.463C377.547,260.997,372.654,260.997,369.637,257.98z"/>
	<path style="fill:#3A484A;" d="M306.244,205.756c-7.138-7.138-10.856-16.82-10.201-26.563c0.286-4.258,3.969-7.477,8.227-7.191
		c4.257,0.286,7.477,3.969,7.191,8.227c-0.356,5.293,1.726,10.614,5.709,14.599c3.984,3.985,9.306,6.066,14.6,5.71
		c4.258-0.286,7.942,2.934,8.226,7.191c0.286,4.258-2.933,7.942-7.192,8.227C323.062,216.611,313.381,212.893,306.244,205.756z"/>
</g>
<g>
</g>
<g>
</g>
<g>
</g>
<g>
</g>
<g>
</g>
<g>
</g>
<g>
</g>
<g>
</g>
<g>
</g>
<g>
</g>
<g>
</g>
<g>
</g>
<g>
</g>
<g>
</g>
<g>
</g>
</svg>
