<?xml version="1.0" encoding="iso-8859-1"?>
<!-- Generator: Adobe Illustrator 19.0.0, SVG Export Plug-In . SVG Version: 6.00 Build 0)  -->
<svg version="1.1" id="Capa_1" xmlns="http://www.w3.org/2000/svg" xmlns:xlink="http://www.w3.org/1999/xlink" x="0px" y="0px"
	 viewBox="0 0 512 512" style="enable-background:new 0 0 512 512;" xml:space="preserve">
<path style="fill:#B6A4FF;" d="M346.656,512h57.649c18.801,0,34.037-15.236,34.037-34.037V393.55
	c0-10.786-5.254-20.748-13.784-27.351C405.685,351.59,391.984,307.777,391.984,256s13.701-95.59,32.574-110.198
	c8.53-6.603,13.784-16.565,13.784-27.351V34.037C438.342,15.236,423.106,0,404.305,0h-296.61C88.894,0,73.658,15.236,73.658,34.037
	v84.413c0,10.786,5.254,20.748,13.784,27.351c18.873,14.608,32.574,58.422,32.574,110.198s-13.701,95.59-32.574,110.198
	c-8.53,6.603-13.784,16.565-13.784,27.351v84.413c0,18.801,15.236,34.037,34.037,34.037h57.649L256,474.398L346.656,512z"/>
<g>
	<path style="fill:#3A484A;" d="M170.851,55.331c-4.268,0-7.726-3.459-7.726-7.726v-15.41c0-4.267,3.458-7.726,7.726-7.726
		c4.268,0,7.726,3.459,7.726,7.726v15.41C178.578,51.872,175.119,55.331,170.851,55.331z"/>
	<path style="fill:#3A484A;" d="M341.149,55.331c-4.268,0-7.726-3.459-7.726-7.726v-15.41c0-4.267,3.458-7.726,7.726-7.726
		c4.268,0,7.726,3.459,7.726,7.726v15.41C348.875,51.872,345.416,55.331,341.149,55.331z"/>
	<path style="fill:#3A484A;" d="M256,63.556c-10.421,0-20.202-4.351-26.834-11.94c-2.808-3.213-2.48-8.094,0.733-10.902
		c3.213-2.808,8.093-2.48,10.902,0.732c3.696,4.23,9.237,6.656,15.198,6.656c5.962,0,11.501-2.426,15.197-6.656
		c2.809-3.213,7.69-3.542,10.902-0.732c3.213,2.808,3.542,7.689,0.734,10.902C276.202,59.205,266.421,63.556,256,63.556z"/>
</g>
<path style="fill:#EFEDEE;" d="M292.396,123.364l-49.789,282.012L292.396,512h54.26V206.407
	C346.656,169.29,324.342,137.375,292.396,123.364z"/>
<g>
	<path style="fill:#D2D2D2;" d="M292.396,123.364V512H165.344V207.571c0-49.035,38.48-90.1,87.486-91.766
		C266.941,115.326,280.356,118.062,292.396,123.364z"/>
	<path style="fill:#D2D2D2;" d="M334.755,161.827c-9.521-16.764-24.254-30.522-42.359-38.462l-5.436,30.79
		c30.98,11.286,53.966,39.347,58.739,71.998c0.64,4.376,0.957,8.798,0.957,13.22c0,0,0-32.965,0-32.966
		C346.656,190.583,342.374,175.243,334.755,161.827z"/>
</g>
<g>
	<path style="fill:#B8B8B8;" d="M165.344,240.534c0.002-49.033,38.481-90.097,87.486-91.763c14.11-0.48,27.524,2.257,39.566,7.559
		v-32.966c-5.268-2.32-10.799-4.149-16.535-5.431c-17.691-3.957-36.566-2.503-53.386,4.293c-34.275,13.85-57.13,48.481-57.13,85.345
		v32.963H165.344z"/>
	<circle style="fill:#B8B8B8;" cx="228.865" cy="307.849" r="19.8"/>
</g>
<g>
</g>
<g>
</g>
<g>
</g>
<g>
</g>
<g>
</g>
<g>
</g>
<g>
</g>
<g>
</g>
<g>
</g>
<g>
</g>
<g>
</g>
<g>
</g>
<g>
</g>
<g>
</g>
<g>
</g>
</svg>
