<?xml version="1.0" encoding="iso-8859-1"?>
<!-- Generator: Adobe Illustrator 19.0.0, SVG Export Plug-In . SVG Version: 6.00 Build 0)  -->
<svg version="1.1" id="Capa_1" xmlns="http://www.w3.org/2000/svg" xmlns:xlink="http://www.w3.org/1999/xlink" x="0px" y="0px"
	 viewBox="0 0 512 512" style="enable-background:new 0 0 512 512;" xml:space="preserve">
<g>
	<path style="fill:#EFEDEE;" d="M126.607,356.793c-8.844,10.25-18.448,23.404-26.78,39.451c-8.341,16.037-15.41,34.967-19.227,56.77
		c-3.099,17.76-4.032,37.419-1.723,58.986h47.73l37.405-51.3L126.607,356.793z"/>
	<path style="fill:#EFEDEE;" d="M431.399,453.014c-7.596-43.422-28.129-75.435-45.779-95.961l-0.066-0.26l-0.046,0.128
		c-0.004-0.005-0.008-0.01-0.012-0.014v0.05l-37.346,103.744l37.346,51.22V512h47.628
		C435.431,490.433,434.498,470.774,431.399,453.014z"/>
</g>
<path style="fill:#506366;" d="M385.432,356.834c0.021,0.021,0.041,0.052,0.062,0.072V512H126.607V356.793L385.432,356.834z"/>
<g>
	<path style="fill:#AD4F3D;" d="M385.494,24.896c54.22-46.701,82.379-2.747,88.561,22.664s35.713,31.593,35.713,31.593
		s-11.67,37.388-55.971,34.146l-56.643-14.23L385.494,24.896z"/>
	<path style="fill:#AD4F3D;" d="M126.505,24.896c-54.22-46.701-82.378-2.747-88.56,22.664S2.232,79.152,2.232,79.152
		s11.67,37.388,55.971,34.146l56.643-14.23L126.505,24.896z"/>
</g>
<path style="fill:#C86D5C;" d="M432.835,82.702c-5.675-6.931-11.823-13.575-18.435-19.888
	c-12.072-11.528-25.267-21.582-39.342-30.067c0.114-0.069,0.075-0.109-0.176-0.109C339.546,11.38,298.669,0,255.999,0
	s-83.547,11.38-118.883,32.638c-14.14,8.507-27.396,18.6-39.518,30.176c-6.612,6.313-12.761,12.957-18.435,19.888
	c-31.041,37.869-47.922,84.34-48.004,133.332v0.113h449.68v-0.113C480.757,167.042,463.877,120.571,432.835,82.702z"/>
<circle style="fill:#FF98C9;" cx="375.058" cy="32.747" r="22.095"/>
<path style="fill:#EB6DA8;" d="M385.36,44.541c-12.204,0-22.095-9.893-22.095-22.095c0-3.439,0.809-6.682,2.21-9.584
	c-7.397,3.572-12.512,11.122-12.512,19.886c0,12.204,9.893,22.095,22.095,22.095c8.764,0,16.314-5.116,19.886-12.512
	C392.041,43.732,388.799,44.541,385.36,44.541z"/>
<circle style="fill:#FF98C9;" cx="136.941" cy="32.747" r="22.095"/>
<path style="fill:#EB6DA8;" d="M147.242,44.541c-12.204,0-22.095-9.893-22.095-22.095c0-3.439,0.809-6.682,2.21-9.584
	c-7.397,3.572-12.512,11.122-12.512,19.886c0,12.204,9.893,22.095,22.095,22.095c8.764,0,16.314-5.116,19.886-12.512
	C153.924,43.732,150.682,44.541,147.242,44.541z"/>
<g>
	<path style="fill:#E3B098;" d="M445.139,184.07c-21.947,2.313-39.052,20.876-39.052,43.436c0,24.125,19.557,43.682,43.682,43.682
		s43.682-19.557,43.682-43.682c0-22.561-17.104-41.123-39.052-43.436H445.139z"/>
	<path style="fill:#E3B098;" d="M66.86,184.07c21.947,2.313,39.052,20.876,39.052,43.436c0,24.125-19.557,43.682-43.682,43.682
		s-43.682-19.557-43.682-43.682c0-22.561,17.104-41.123,39.052-43.436H66.86z"/>
</g>
<g>
	<path style="fill:#D2D2D2;" d="M403.761,381.598c-5.974-9.47-12.22-17.658-18.142-24.545l-0.066-0.26l-0.046,0.128
		c-0.004-0.005-0.008-0.01-0.012-0.014v0.05l-17.643,49.012C380.515,399.039,392.54,390.896,403.761,381.598z"/>
	<path style="fill:#D2D2D2;" d="M126.607,356.793c-5.986,6.937-12.319,15.21-18.371,24.805c11.283,9.348,23.374,17.53,36.113,24.482
		L126.607,356.793z"/>
</g>
<path style="fill:#3A484A;" d="M126.607,356.793v38.524c37.716,25.307,82.487,38.944,129.392,38.944
	c46.947,0,91.757-13.659,129.495-39.011v-38.343c-0.021-0.021-0.041-0.052-0.062-0.072L126.607,356.793z"/>
<path style="fill:#EFEDEE;" d="M323.83,369.505c0,0-5.726,53.415-67.749,87.408c-62.033-33.992-67.749-87.408-67.749-87.408H323.83z
	"/>
<path style="fill:#FD6F71;" d="M156.013,356.793l1.713,15.985c0.339,3.201,2.627,20.243,13.933,41.923
	c14.837,28.441,38.917,52.368,69.626,69.206l14.795,8.105l14.795-8.105c30.709-16.837,54.79-40.764,69.626-69.206
	c11.307-21.68,13.585-38.722,13.933-41.923l1.703-15.944L156.013,356.793z M256.082,456.912
	c-62.033-33.992-67.749-87.408-67.749-87.408h135.498C323.83,369.505,318.105,422.92,256.082,456.912z"/>
<path style="fill:#E36465;" d="M289.979,431.833c16.445-2.366,32.453-6.449,47.797-12.149c0.939-1.645,1.852-3.305,2.727-4.983
	c11.307-21.68,13.585-38.722,13.933-41.923l1.703-15.945l-101.225-0.021l-98.901-0.015l1.713,15.981
	c0.339,3.201,2.627,20.243,13.933,41.923c0.888,1.704,1.814,3.388,2.769,5.058c15.339,5.682,31.34,9.748,47.777,12.098
	c-30.432-30.264-33.872-62.354-33.872-62.354h135.498C323.83,369.505,320.385,401.577,289.979,431.833z"/>
<path style="fill:#D2D2D2;" d="M323.83,369.505H188.333c0,0,3.442,32.093,33.878,62.358c11.09,1.585,22.376,2.396,33.789,2.396
	c11.478,0,22.828-0.822,33.978-2.425C320.385,401.578,323.83,369.505,323.83,369.505z"/>
<path style="fill:#FBC4AC;" d="M452.001,215.156c-0.405-57.631-44.098-106.005-101.397-112.202
	c-30.142-3.261-64.482,1.437-94.634,26.519c-30.033-24.983-64.213-29.737-94.261-26.548c-50.113,5.32-90.388,43.495-99.541,93.051
	c-1.333,7.22-2.163,14.112-2.175,20.116c0.197,103.453,87.873,187.261,196.005,187.261s195.809-83.807,196.005-187.261
	C452.004,215.781,452.003,215.469,452.001,215.156z"/>
<path style="fill:#3A484A;" d="M149.512,258.929c-4.267,0-7.726-3.459-7.726-7.726v-20.706c0-4.267,3.459-7.726,7.726-7.726
	s7.726,3.459,7.726,7.726v20.706C157.238,255.469,153.779,258.929,149.512,258.929z"/>
<path style="fill:#F98084;" d="M163.612,289.362h-28.201c-4.267,0-7.726-3.459-7.726-7.726c0-4.267,3.459-7.726,7.726-7.726h28.201
	c4.267,0,7.726,3.459,7.726,7.726C171.338,285.903,167.879,289.362,163.612,289.362z"/>
<path style="fill:#3A484A;" d="M362.487,258.929c-4.267,0-7.726-3.459-7.726-7.726v-20.706c0-4.267,3.459-7.726,7.726-7.726
	c4.267,0,7.726,3.459,7.726,7.726v20.706C370.214,255.469,366.754,258.929,362.487,258.929z"/>
<path style="fill:#F98084;" d="M376.587,289.362h-28.201c-4.267,0-7.726-3.459-7.726-7.726c0-4.267,3.459-7.726,7.726-7.726h28.201
	c4.267,0,7.726,3.459,7.726,7.726C384.314,285.903,380.855,289.362,376.587,289.362z"/>
<path style="fill:#3A484A;" d="M255.999,288.193c-9.653,0-18.715-4.034-24.863-11.068c-2.808-3.213-2.481-8.094,0.732-10.902
	c3.213-2.808,8.093-2.481,10.902,0.732c3.214,3.677,8.035,5.786,13.229,5.786c5.194,0,10.015-2.109,13.229-5.786
	c2.808-3.213,7.689-3.541,10.902-0.732c3.213,2.808,3.541,7.689,0.732,10.902C274.715,284.159,265.652,288.193,255.999,288.193z"/>
<g>
</g>
<g>
</g>
<g>
</g>
<g>
</g>
<g>
</g>
<g>
</g>
<g>
</g>
<g>
</g>
<g>
</g>
<g>
</g>
<g>
</g>
<g>
</g>
<g>
</g>
<g>
</g>
<g>
</g>
</svg>
