<?xml version="1.0" encoding="iso-8859-1"?>
<!-- Generator: Adobe Illustrator 19.0.0, SVG Export Plug-In . SVG Version: 6.00 Build 0)  -->
<svg version="1.1" id="Capa_1" xmlns="http://www.w3.org/2000/svg" xmlns:xlink="http://www.w3.org/1999/xlink" x="0px" y="0px"
	 viewBox="0 0 512 512" style="enable-background:new 0 0 512 512;" xml:space="preserve">
<path style="fill:#FF98C9;" d="M501.776,81.967l-71.744-71.744c-13.631-13.631-35.731-13.63-49.362,0l-43.971,43.971l43.583,77.523
	l77.523,43.583l43.971-43.971C515.408,117.698,515.408,95.598,501.776,81.967z"/>
<path style="fill:#EB6DA8;" d="M358.553,76.048l43.971-43.971c13.631-13.63,35.731-13.631,49.362,0l-21.854-21.853
	c-13.631-13.631-35.731-13.63-49.362,0l-43.971,43.971l43.583,77.523l13.989,7.864L358.553,76.048z"/>
<polygon style="fill:#FA9F6A;" points="149.641,459.042 50.643,360.044 15.808,375.087 5.841,448.937 22.108,489.892 
	63.063,506.158 136.913,496.192 "/>
<polygon style="fill:#6EE3FF;" points="380.282,131.718 302.759,88.135 253.392,137.503 296.973,215.026 374.497,258.608 
	423.865,209.241 "/>
<polygon style="fill:#42C3E2;" points="275.245,159.356 324.613,109.988 388.146,145.707 380.282,131.718 302.759,88.135 
	253.392,137.503 296.974,215.026 310.963,222.891 "/>
<polygon style="fill:#6EE3FF;" points="136.913,496.192 130.753,461.983 96.545,455.823 90.385,421.615 56.177,415.454 
	50.016,381.246 15.808,375.087 219.45,171.444 340.556,292.55 "/>
<polygon style="fill:#42C3E2;" points="241.304,193.297 219.45,171.444 15.808,375.087 50.016,381.246 50.525,384.075 "/>
<path style="fill:#FADC60;" d="M457.805,175.301L336.699,54.195c-9.373-9.373-24.568-9.373-33.94,0l0,0
	c-9.373,9.373-9.373,24.568,0,33.94l121.106,121.106c9.373,9.373,24.568,9.373,33.94,0l0,0
	C467.178,199.868,467.178,184.672,457.805,175.301z"/>
<path style="fill:#E6CB59;" d="M324.613,76.048L324.613,76.048c9.373-9.373,24.568-9.373,33.94,0L336.7,54.195
	c-9.373-9.373-24.568-9.373-33.94,0l0,0c-9.373,9.373-9.373,24.568,0,33.94l21.853,21.853
	C315.241,100.616,315.241,85.42,324.613,76.048z"/>
<path style="fill:#FADC60;" d="M374.497,258.608L253.392,137.503c-9.373-9.373-24.568-9.373-33.94,0l0,0
	c-9.373,9.373-9.373,24.568,0,33.94L340.557,292.55c9.373,9.373,24.568,9.373,33.94,0l0,0
	C383.869,283.177,383.869,267.981,374.497,258.608z"/>
<path style="fill:#E6CB59;" d="M241.304,159.356L241.304,159.356c9.373-9.373,24.568-9.373,33.94,0l-21.853-21.853
	c-9.373-9.373-24.568-9.373-33.94,0l0,0c-9.373,9.373-9.373,24.568,0,33.94l21.853,21.853
	C231.932,183.924,231.932,168.729,241.304,159.356z"/>
<path style="fill:#3A484A;" d="M63.063,506.158l-42.017,5.67c-12.149,1.643-22.517-8.725-20.874-20.874l5.67-42.017L63.063,506.158z
	"/>
<g>
</g>
<g>
</g>
<g>
</g>
<g>
</g>
<g>
</g>
<g>
</g>
<g>
</g>
<g>
</g>
<g>
</g>
<g>
</g>
<g>
</g>
<g>
</g>
<g>
</g>
<g>
</g>
<g>
</g>
</svg>
