<?xml version="1.0" encoding="iso-8859-1"?>
<!-- Generator: Adobe Illustrator 19.0.0, SVG Export Plug-In . SVG Version: 6.00 Build 0)  -->
<svg version="1.1" id="Capa_1" xmlns="http://www.w3.org/2000/svg" xmlns:xlink="http://www.w3.org/1999/xlink" x="0px" y="0px"
	 viewBox="0 0 512 512" style="enable-background:new 0 0 512 512;" xml:space="preserve">
<path style="fill:#E36465;" d="M488.293,148.475c-21.501,21.501-56.486,21.501-77.987,0s-21.501-56.486,0-77.987
	s56.486-21.501,77.987,0S509.794,126.974,488.293,148.475z M431.291,91.473c-9.93,9.93-9.93,26.087,0,36.017
	c9.93,9.93,26.086,9.93,36.017,0s9.93-26.087,0-36.017S441.221,81.543,431.291,91.473z"/>
<path style="fill:#FD6F71;" d="M235.647,132.697l-99.286,99.286c-4.057,4.057-4.057,10.633,0,14.689
	c4.056,4.057,4.057,10.632,0,14.689l-27.28,27.28c-4.057,4.057-10.634,4.057-14.689,0c-4.057-4.057-10.632-4.057-14.689,0
	L6.706,361.637c-8.942,8.942-8.942,23.44,0,32.382l56.932,56.932c9.446,9.446,24.898,8.785,33.597-1.352
	c17.667-20.589,50.379-51.465,95.639-63.878c30.953-8.49,63.798-5.217,93.203,7.647c59.036,25.827,130.38,14.588,178.695-33.727
	c62.989-62.989,62.97-165.129-0.059-228.093C401.557,68.453,298.771,69.572,235.647,132.697z"/>
<circle style="fill:#E36465;" cx="350.756" cy="245.626" r="119.697"/>
<g>
	<path style="fill:#3A484A;" d="M88.27,248.279c-1.977,0-3.955-0.754-5.463-2.263L69.341,232.55c-3.017-3.017-3.017-7.91,0-10.926
		c3.017-3.017,7.91-3.017,10.926,0l13.465,13.465c3.017,3.017,3.017,7.91,0,10.926C92.225,247.524,90.247,248.279,88.27,248.279z"/>
	<path style="fill:#3A484A;" d="M65.886,270.662H46.843c-4.267,0-7.726-3.459-7.726-7.726c0-4.267,3.459-7.726,7.726-7.726h19.043
		c4.267,0,7.726,3.459,7.726,7.726C73.613,267.203,70.153,270.662,65.886,270.662z"/>
	<path style="fill:#3A484A;" d="M110.654,225.894c-4.267,0-7.726-3.459-7.726-7.726v-19.043c0-4.267,3.459-7.726,7.726-7.726
		s7.726,3.459,7.726,7.726v19.043C118.38,222.436,114.921,225.894,110.654,225.894z"/>
</g>
<g>
</g>
<g>
</g>
<g>
</g>
<g>
</g>
<g>
</g>
<g>
</g>
<g>
</g>
<g>
</g>
<g>
</g>
<g>
</g>
<g>
</g>
<g>
</g>
<g>
</g>
<g>
</g>
<g>
</g>
</svg>
