<?xml version="1.0" encoding="iso-8859-1"?>
<!-- Generator: Adobe Illustrator 19.0.0, SVG Export Plug-In . SVG Version: 6.00 Build 0)  -->
<svg version="1.1" id="Capa_1" xmlns="http://www.w3.org/2000/svg" xmlns:xlink="http://www.w3.org/1999/xlink" x="0px" y="0px"
	 viewBox="0 0 512 512" style="enable-background:new 0 0 512 512;" xml:space="preserve">
<path style="fill:#B8B8B8;" d="M494.932,240.687v36.691c0,80.039-65.117,145.156-145.157,145.156
	c-8.93,0-16.169-7.239-16.169-16.169c0-8.93,7.239-16.169,16.169-16.169c62.21,0,112.82-50.611,112.82-112.819v-36.691h32.336
	V240.687z"/>
<path style="fill:#999999;" d="M493.908,224.572H463.62c-8.9,0-16.115,7.215-16.115,16.115l0,0c0,8.9,7.215,16.115,16.115,16.115
	h30.288c8.9,0,16.115-7.215,16.115-16.115l0,0C510.023,231.788,502.808,224.572,493.908,224.572z"/>
<path style="fill:#D2D2D2;" d="M40.78,290.886v174.97C40.78,491.341,61.439,512,86.924,512h249.044
	c25.485,0,46.145-20.659,46.145-46.145V290.886H40.78z"/>
<path style="fill:#B8B8B8;" d="M40.78,378.731c0.234,0.236,0.46,0.477,0.695,0.712c45.4,45.401,105.765,70.405,169.972,70.405
	c64.206,0,124.571-25.004,169.972-70.405c0.235-0.235,0.46-0.476,0.694-0.712v-87.846H40.78V378.731z"/>
<circle style="fill:#E36465;" cx="211.444" cy="209.467" r="209.467"/>
<circle style="fill:#FD6F71;" cx="211.444" cy="209.467" r="172.102"/>
<g>
	<circle style="fill:#B8B8B8;" cx="97.701" cy="455.072" r="18.043"/>
	<circle style="fill:#B8B8B8;" cx="325.186" cy="455.072" r="18.043"/>
</g>
<g>
	<path style="fill:#3A484A;" d="M115.745,221.234c-4.268,0-7.726-3.459-7.726-7.726v-17.32c0-4.267,3.458-7.726,7.726-7.726
		s7.726,3.459,7.726,7.726v17.32C123.471,217.775,120.013,221.234,115.745,221.234z"/>
	<path style="fill:#3A484A;" d="M307.146,221.234c-4.268,0-7.726-3.459-7.726-7.726v-17.32c0-4.267,3.458-7.726,7.726-7.726
		c4.268,0,7.726,3.459,7.726,7.726v17.32C314.873,217.775,311.414,221.234,307.146,221.234z"/>
	<path style="fill:#3A484A;" d="M211.447,230.479c-11.436,0-22.166-4.772-29.437-13.092c-2.809-3.213-2.481-8.094,0.732-10.902
		c3.212-2.808,8.093-2.48,10.901,0.732c4.338,4.962,10.827,7.809,17.804,7.809c6.976,0,13.464-2.846,17.802-7.809
		c2.81-3.214,7.69-3.541,10.902-0.732c3.213,2.808,3.542,7.689,0.734,10.902C233.611,225.709,222.882,230.479,211.447,230.479z"/>
</g>
<g>
</g>
<g>
</g>
<g>
</g>
<g>
</g>
<g>
</g>
<g>
</g>
<g>
</g>
<g>
</g>
<g>
</g>
<g>
</g>
<g>
</g>
<g>
</g>
<g>
</g>
<g>
</g>
<g>
</g>
</svg>
