<?xml version="1.0" encoding="iso-8859-1"?>
<!-- Generator: Adobe Illustrator 19.0.0, SVG Export Plug-In . SVG Version: 6.00 Build 0)  -->
<svg version="1.1" id="Capa_1" xmlns="http://www.w3.org/2000/svg" xmlns:xlink="http://www.w3.org/1999/xlink" x="0px" y="0px"
	 viewBox="0 0 512 512" style="enable-background:new 0 0 512 512;" xml:space="preserve">
<path style="fill:#58B78C;" d="M199.108,110.664h-10.779l-63.619-26.228l-63.619,26.228l3.814,1.344
	c-6.966,2.773-11.897,9.563-11.897,17.517v14.735c0,10.417,8.444,18.862,18.862,18.862l63.619,26.588l52.839-26.588h10.779
	c10.417,0,18.862-8.444,18.862-18.862v-14.735C217.97,119.108,209.525,110.664,199.108,110.664z"/>
<path style="fill:#46926F;" d="M102.777,163.121c-10.417,0-18.862-8.444-18.862-18.862v-14.735c0-7.954,4.93-14.744,11.897-17.517
	l-3.814-1.344l48.166-19.858l-15.453-6.371l-63.619,26.228l3.814,1.344c-6.966,2.773-11.897,9.563-11.897,17.517v14.735
	c0,10.417,8.444,18.862,18.862,18.862l63.619,26.588l14.023-7.056L102.777,163.121z"/>
<g>
	<path style="fill:#E6CB59;" d="M54.396,433.996v57.466c0,8.963,7.265,16.227,16.227,16.227h23.095
		c8.963,0,16.227-7.265,16.227-16.227v-57.466H54.396z"/>
	<path style="fill:#E6CB59;" d="M458.682,433.996v57.466c0,8.963-7.265,16.227-16.227,16.227H419.36
		c-8.963,0-16.227-7.265-16.227-16.227v-57.466H458.682z"/>
</g>
<path style="fill:#6EE3FF;" d="M188.329,58.206H61.093c-10.417,0-18.862,8.444-18.862,18.862v14.735
	c0,10.417,8.444,18.862,18.862,18.862h127.237c10.417,0,18.862-8.444,18.862-18.862V77.068
	C207.191,66.651,198.747,58.206,188.329,58.206z"/>
<path style="fill:#42C3E2;" d="M73.137,91.803V77.068c0-10.417,8.444-18.862,18.862-18.862H61.093
	c-10.417,0-18.862,8.444-18.862,18.862v14.735c0,10.417,8.444,18.862,18.862,18.862h30.905
	C81.581,110.664,73.137,102.22,73.137,91.803z"/>
<path style="fill:#FF98C9;" d="M188.329,163.121H61.093c-10.417,0-18.862,8.444-18.862,18.862v14.735
	c0,10.417,8.444,18.862,18.862,18.862l63.619,22.277l63.619-22.277c10.417,0,18.862-8.444,18.862-18.862v-14.735
	C207.191,171.566,198.747,163.121,188.329,163.121z"/>
<path style="fill:#EB6DA8;" d="M91.998,215.579c-10.417,0-18.862-8.444-18.862-18.862v-14.735c0-10.417,8.444-18.862,18.862-18.862
	H61.093c-10.417,0-18.862,8.444-18.862,18.862v14.735c0,10.417,8.444,18.862,18.862,18.862l63.619,22.277l15.453-5.411
	L91.998,215.579z"/>
<path style="fill:#506366;" d="M458.105,215.579L439.749,35.691c-1.818-17.823-16.829-31.379-34.744-31.379h-83.51
	c-17.916,0-32.926,13.556-34.744,31.379l-18.356,179.888l94.855,40.241L458.105,215.579z"/>
<polygon style="fill:#D2D2D2;" points="420.573,219.408 402.474,42.038 324.026,42.038 305.928,219.408 "/>
<path style="fill:#FADC60;" d="M256.539,251.868L19.36,282.409v139.583c0,19.35,15.687,35.035,35.035,35.035h403.209
	c19.35,0,35.035-15.687,35.035-35.035V282.409L256.539,251.868z"/>
<polygon style="fill:#E6CB59;" points="19.36,282.409 19.36,313.314 19.36,313.314 492.64,313.314 492.64,313.314 492.64,282.409 
	256.539,251.868 "/>
<path style="fill:#FD6F71;" d="M492.64,215.579H19.36c-10.692,0-19.36,8.668-19.36,19.36v28.11c0,10.692,8.668,19.36,19.36,19.36
	h473.28c10.692,0,19.36-8.668,19.36-19.36v-28.11C512,224.247,503.332,215.579,492.64,215.579z"/>
<path style="fill:#E36465;" d="M30.905,263.048v-28.11c0-10.692,8.668-19.359,19.36-19.359H19.36C8.668,215.579,0,224.247,0,234.939
	v28.11c0,10.692,8.668,19.36,19.36,19.36h30.905C39.573,282.409,30.905,273.741,30.905,263.048z"/>
<g>
	<path style="fill:#3A484A;" d="M166.368,373.359c-4.268,0-7.726-3.459-7.726-7.726v-16.319c0-4.267,3.458-7.726,7.726-7.726
		c4.268,0,7.726,3.459,7.726,7.726v16.319C174.094,369.901,170.636,373.359,166.368,373.359z"/>
	<path style="fill:#3A484A;" d="M346.71,373.359c-4.268,0-7.726-3.459-7.726-7.726v-16.319c0-4.267,3.458-7.726,7.726-7.726
		c4.268,0,7.726,3.459,7.726,7.726v16.319C354.436,369.901,350.977,373.359,346.71,373.359z"/>
	<path style="fill:#3A484A;" d="M256.539,382.07c-10.903,0-21.136-4.551-28.072-12.488c-2.809-3.213-2.481-8.094,0.732-10.902
		s8.094-2.48,10.901,0.732c4.003,4.579,9.994,7.205,16.439,7.205c6.444,0,12.434-2.626,16.438-7.205
		c2.807-3.213,7.69-3.541,10.901-0.732c3.213,2.808,3.542,7.689,0.732,10.902C277.674,377.519,267.442,382.07,256.539,382.07z"/>
</g>
<g>
</g>
<g>
</g>
<g>
</g>
<g>
</g>
<g>
</g>
<g>
</g>
<g>
</g>
<g>
</g>
<g>
</g>
<g>
</g>
<g>
</g>
<g>
</g>
<g>
</g>
<g>
</g>
<g>
</g>
</svg>
